<ttFont>
<head>
    <!-- Most of this table will be recalculated by the compiler -->
    <tableVersion value="1.0"/>
    <fontRevision value="1.0"/>
    <checkSumAdjustment value="0xd6c1fd7a"/>
    <magicNumber value="0x5f0f3cf5"/>
    <flags value="00000000 00000011"/>
    <unitsPerEm value="2048"/>
    <created value="Thu Aug 15 19:02:42 2019"/>
    <modified value="Fri Aug 16 02:19:09 2019"/>
    <xMin value="-560"/>
    <yMin value="-500"/>
    <xMax value="3906"/>
    <yMax value="2057"/>
<macStyle value="00000000 00000000"/>
    <lowestRecPPEM value="3"/>
    <fontDirectionHint value="2"/>
    <indexToLocFormat value="0"/>
    <glyphDataFormat value="0"/>
  </head>
          <CharString index="0">
            -982 -79 callgsubr
            return
          </CharString>
          <CharString index="1">
            61 -18 rlineto
            55 -17 9 -17 -64 vvcurveto
            return
          </CharString>
          <CharString index="2">
            rmoveto
            -521 -65 0 -93 return
          </CharString>
          <CharString index="3">
            rmoveto
            70 callsubr
            return
          </CharString>
          <CharString index="4">
            129 -20 20 -23 -89 vvcurveto
            return
          </CharString>
          <CharString index="5">
            321 -243 209 -352 -352 -252 -221 -321 return
          </CharString>
          <CharString index="6">
            449 -335 298 -457 43 callsubr
            vhcurveto
            467 16 rmoveto
            359 52 callsubr
            124 -262 -368 49 callsubr
            -89 callgsubr
            endchar
          </CharString>
          <CharString index="7">
            rmoveto
            -20 callsubr
            65 callsubr
            endchar
          </CharString>
          <CharString index="8">
            rmoveto
            352 252 222 320 return
          </CharString>
          <CharString index="9">
            166 callsubr
            endchar
          </CharString>
          <CharString index="10">
            rmoveto
            173 133 71 105 52 hvcurveto
            return
          </CharString>
          <CharString index="11">
            517 57 0 93 -61 18 rlineto
            return
          </CharString>
          <CharString index="12">
            54 callsubr
            endchar
          </CharString>
          <CharString index="13">
            1153 rmoveto
            419 390 rlineto
            12 return
          </CharString>
          <CharString index="14">
            129 20 vhcurveto
            99 48 callsubr
            return
          </CharString>
          <CharString index="15">
            42 callsubr
            95 hlineto
            endchar
          </CharString>
          <CharString index="16">
            -564 2 callsubr
            return
          </CharString>
          <CharString index="17">
            -77 callsubr
            endchar
          </CharString>
          <CharString index="18">
            61 callsubr
            endchar
          </CharString>
          <CharString index="19">
            62 callsubr
            endchar
          </CharString>
          <CharString index="20">
            rmoveto
            -1206 -99 hlineto
            return
          </CharString>
          <CharString index="21">
            rmoveto
            -671 vlineto
            -383 276 -194 351 377 224 232 359 5 vhcurveto
            7 623 2 114 17 165 callsubr
            endchar
          </CharString>
          <CharString index="22">
            -455 vlineto
            -219 135 -118 206 186 126 86 110 51 vhcurveto
            -187 vlineto
            return
          </CharString>
          <CharString index="23">
            rmoveto
            99 80 68 96 95 -80 68 -99 -99 -81 -68 -95 -96 80 -68 100 hvcurveto
            endchar
          </CharString>
          <CharString index="24">
            rmoveto
            1 callsubr
            return
          </CharString>
          <CharString index="25">
            1543 rmoveto
            399 303 rlineto
            10 return
          </CharString>
          <CharString index="26">
            83 callsubr
            endchar
          </CharString>
          <CharString index="27">
            rmoveto
            669 181 -669 hlineto
            endchar
          </CharString>
          <CharString index="28">
            rmoveto
            982 vlineto
            89 20 23 return
          </CharString>
          <CharString index="29">
            -99 hlineto
            -103 callsubr
            return
          </CharString>
          <CharString index="30">
            647 99 vlineto
            -106 15 -20 19 72 vvcurveto
            return
          </CharString>
          <CharString index="31">
            621 99 vlineto
            -86 13 -14 17 69 vvcurveto
            return
          </CharString>
          <CharString index="32">
            1863 rmoveto
            -230 -140 return
          </CharString>
          <CharString index="33">
            1172 rmoveto
            107 86 76 106 106 -86 75 -107 return
          </CharString>
          <CharString index="34">
            128 19 vhcurveto
            99 -709 -99 vlineto
            117 -17 return
          </CharString>
          <CharString index="35">
            rmoveto
            168 116 73 122 120 return
          </CharString>
          <CharString index="36">
            982 vlineto
            92 21 21 return
          </CharString>
          <CharString index="37">
            rmoveto
            338 -815 -80 -118 -131 -169 -92 -107 rlinecurve
            -8 330 vlineto
            159 439 130 314 185 455 58 142 24 20 90 18 rlinecurve
            99 -398 -99 vlineto
            118 -12 10 -29 -45 -128 rrcurveto
            -142 -399 -140 400 -43 127 10 29 120 12 rlinecurve
            99 -663 -99 vlineto
            88 -18 21 -23 53 -130 rrcurveto
            endchar
          </CharString>
          <CharString index="38">
            44 24 60 32 73 hhcurveto
            106 61 -61 -116 hvcurveto
            -482 vlineto
            -69 -15 -84 callgsubr
            -106 15 -19 19 72 vvcurveto
            510 vlineto
            217 -141 117 -214 return
          </CharString>
          <CharString index="39">
            -15 callgsubr
            73 64 91 90 -73 65 -90 hvcurveto
            endchar
          </CharString>
          <CharString index="40">
            -402 vlineto
            -142 -402 rlineto
            return
          </CharString>
          <CharString index="41">
            -67 -60 -85 -84 67 -60 83 hvcurveto
            return
          </CharString>
          <CharString index="42">
            rmoveto
            316 -554 rlineto
            -357 vlineto
            -98 -23 -30 -137 -19 vhcurveto
            -99 742 39 callsubr
            377 vlineto
            306 -42 callgsubr
            -457 -99 vlineto
            137 -17 13 -34 -5 callgsubr
            endchar
          </CharString>
          <CharString index="43">
            -416 rlineto
            94 hlineto
            49 235 63 51 217 14 41 return
          </CharString>
          <CharString index="44">
            -18 9 -16 -64 vvcurveto
            -1030 2 callsubr
            return
          </CharString>
          <CharString index="45">
            -83 -68 -60 -85 -84 67 -60 84 hvcurveto
            return
          </CharString>
          <CharString index="46">
            1543 rmoveto
            230 141 return
          </CharString>
          <CharString index="47">
            -73 -64 -91 -89 73 -65 91 hvcurveto
            return
          </CharString>
          <CharString index="48">
            rmoveto
            -90 callgsubr
            return
          </CharString>
          <CharString index="49">
            69 55 44 61 62 -55 43 -69 hvcurveto
            -16 hlineto
            -69 -55 -43 -62 -61 55 -44 69 hvcurveto
            return
          </CharString>
          <CharString index="50">
            rmoveto
            340 99 341 -99 0 98 -309 197 -64 0 -308 -197 rlineto
            return
          </CharString>
          <CharString index="51">
            577 1509 -59 callsubr
            -63 callsubr
            return
          </CharString>
          <CharString index="52">
            20 -21 -87 vvcurveto
            -423 -509 38 callgsubr
            return
          </CharString>
          <CharString index="53">
            3 rcurveline
            -1085 vlineto
            -98 -23 -30 -136 -19 vhcurveto
            -99 return
          </CharString>
          <CharString index="54">
            1590 rmoveto
            648 176 -648 hlineto
            return
          </CharString>
          <CharString index="55">
            710 99 vlineto
            -118 19 -19 21 85 vvcurveto
            return
          </CharString>
          <CharString index="56">
            -401 vlineto
            -143 -402 rlineto
            return
          </CharString>
          <CharString index="57">
            -401 vlineto
            -121 -313 rlineto
            return
          </CharString>
          <CharString index="58">
            583 vlineto
            -69 callsubr
            return
          </CharString>
          <CharString index="59">
            -710 8 callsubr
            return
          </CharString>
          <CharString index="60">
            -52 callsubr
            endchar
          </CharString>
          <CharString index="61">
            rmoveto
            -516 -65 0 -93 -106 callsubr
            -91 callsubr
            -76 callsubr
            583 vlineto
            return
          </CharString>
          <CharString index="62">
            -254 153 -96 184 139 133 54 59 55 vhcurveto
            108 callgsubr
            return
          </CharString>
          <CharString index="63">
            -230 140 -123 0 215 -312 274 0 215 312 rlineto
            return
          </CharString>
          <CharString index="64">
            72 -74 callgsubr
            -17 hlineto
            -72 -58 -51 -73 -72 58 -51 72 hvcurveto
            return
          </CharString>
          <CharString index="65">
            1545 rmoveto
            91 73 65 89 91 -73 64 -91 -91 return
          </CharString>
          <CharString index="66">
            1383 1444 rmoveto
            -1331 hlineto
            -10 return
          </CharString>
          <CharString index="67">
            376 hmoveto
            84 67 60 84 85 -67 60 -84 -83 return
          </CharString>
          <CharString index="68">
            rmoveto
            72 -9 callsubr
            403 hmoveto
            72 return
          </CharString>
          <CharString index="69">
            -106 -87 -75 -106 -106 86 -76 107 hvcurveto
            return
          </CharString>
          <CharString index="70">
            84 19 22 118 19 vhcurveto
            99 return
          </CharString>
          <CharString index="71">
            -101 70 -138 -96 -76 -32 -40 return
          </CharString>
          <CharString index="72">
            1547 rmoveto
            203 vlineto
            return
          </CharString>
          <CharString index="73">
            rmoveto
            248 390 rlineto
            12 return
          </CharString>
          <CharString index="74">
            rmoveto
            -169 150 -105 178 -26 vhcurveto
            -202 -30 -122 -94 -134 vvcurveto
            -1 -131 131 -84 190 -4 rrcurveto
            -252 -11 -110 -69 -101 vvcurveto
            -137 203 -98 361 364 249 155 228 200 -156 124 -304 vhcurveto
            -201 hlineto
            -97 -49 29 50 40 31 29 52 15 hvcurveto
            -5 42 38 -2 40 hhcurveto
            300 224 115 207 91 -55 85 -81 35 hvcurveto
            256 -23 0 144 -371 -26 rlineto
            30 -74 -104 18 -109 hhcurveto
            -310 -211 -142 -204 hvcurveto
            387 14 rmoveto
            127 50 85 91 90 59 -82 -139 -129 -53 -85 -89 -87 -61 83 140 vhcurveto
            -79 -935 rmoveto
            69 48 47 84 9 vhcurveto
            164 hlineto
            127 57 -44 -74 -89 -97 -62 -155 -145 -83 58 86 hvcurveto
            endchar
          </CharString>
          <CharString index="75">
            rmoveto
            217 140 94 155 -7 hvcurveto
            -115 hlineto
            -55 -6 -96 -37 -133 hhcurveto
            -133 -96 38 54 -6 hvcurveto
            -115 hlineto
            -155 -7 140 -94 217 hhcurveto
            return
          </CharString>
          <CharString index="76">
            -245 -145 282 347 362 143 243 246 -7 callgsubr
          </CharString>
          <CharString index="77">
            1163 rmoveto
            112 91 80 111 111 -91 79 -112 -112 return
          </CharString>
          <CharString index="78">
            1543 rmoveto
            398 303 rlineto
            10 97 callsubr
            return
          </CharString>
          <CharString index="79">
            -911 vlineto
            -338 -67 -137 -212 -140 vhcurveto
            return
          </CharString>
          <CharString index="80">
            1153 rmoveto
            248 188 246 -188 return
          </CharString>
          <CharString index="81">
            1237 rmoveto
            720 200 -720 hlineto
            return
          </CharString>
          <CharString index="82">
            641 1444 -18 callsubr
            return
          </CharString>
          <CharString index="83">
            -188 -130 -85 -110 -51 vhcurveto
            return
          </CharString>
          <CharString index="84">
            -683 -211 rlineto
            -93 vlineto
            return
          </CharString>
          <CharString index="85">
            rmoveto
            274 -757 260 0 233 649 234 -649 260 0 267 742 52 148 24 21 86 17 rlinecurve
            99 -372 -99 vlineto
            101 -11 12 -30 -42 -135 rrcurveto
            -124 -394 -120 394 -39 135 9 31 98 10 rlinecurve
            99 -617 -99 vlineto
            96 -10 11 -31 -40 -134 rrcurveto
            -125 -394 -120 393 -39 135 10 30 100 11 rlinecurve
            99 -645 -99 vlineto
            83 -19 27 -24 46 -128 rrcurveto
            endchar
          </CharString>
          <CharString index="86">
            rmoveto
            -449 341 -295 471 223 218 50 81 123 vhcurveto
            399 vlineto
            84 18 23 117 15 vhcurveto
            98 -649 -98 vlineto
            129 -15 18 -23 -83 vvcurveto
            -356 vlineto
            -25 -31 -58 -16 -69 hhcurveto
            -242 -142 280 349 362 140 243 249 184 124 -134 -233 55 hvcurveto
            94 hlineto
            -9 404 rlineto
            62 80 callgsubr
            endchar
          </CharString>
          <CharString index="87">
            -406 1136 -340 0 -405 -1122 -64 -177 -27 -29 -116 -18 rlinecurve
            -99 475 99 vlineto
            -144 22 -23 34 56 166 rrcurveto
            46 139 453 0 48 -144 54 -162 -23 -34 -142 -21 rlinecurve
            -99 return
          </CharString>
          <CharString index="88">
            -19 28 -2 63 callgsubr
            2 115 18 26 121 20 rlinecurve
            99 -446 -99 vlineto
            130 -19 19 -28 2 -119 17 -808 rcurveline
            return
          </CharString>
          <CharString index="89">
            rmoveto
            -600 -99 hlineto
            120 -21 22 -31 -104 vvcurveto
            -9 -929 rlineto
            -115 -19 -26 -122 -20 vhcurveto
            -99 447 99 vlineto
            -131 19 return
          </CharString>
          <CharString index="90">
            230 -141 -55 callgsubr
            return
          </CharString>
          <CharString index="91">
            rmoveto
            -463 356 -284 466 196 189 44 65 92 vhcurveto
            9 406 rlineto
            -40 callgsubr
            return
          </CharString>
          <CharString index="92">
            1565 rmoveto
            219 117 135 149 21 -2 21 -3 17 hvcurveto
            return
          </CharString>
          <CharString index="93">
            -40 -24 -67 -53 -56 16 20 -31 vhcurveto
            -87 vlineto
            -38 44 81 -28 98 hhcurveto
            endchar
          </CharString>
          <CharString index="94">
            rmoveto
            -328 177 -196 236 160 124 78 117 50 vhcurveto
            return
          </CharString>
          <CharString index="95">
            -609 vlineto
            -303 -34 -118 -156 -139 vhcurveto
            51 -79 return
          </CharString>
          <CharString index="96">
            -1 -26 -20 -49 hhcurveto
            -29 -31 7 11 -39 hvcurveto
            -41 12 rlineto
            15 return
          </CharString>
          <CharString index="97">
            11 503 rlineto
            -94 hlineto
            -72 -306 -84 -68 -216 -10 return
          </CharString>
          <CharString index="98">
            59 51 72 73 -59 51 -72 hvcurveto
            -103 callgsubr
            return
          </CharString>
          <CharString index="99">
            1542 rmoveto
            122 89 92 237 return
          </CharString>
          <CharString index="100">
            1182 rmoveto
            128 93 99 254 return
          </CharString>
          <CharString index="101">
            -79 -111 -111 90 -80 112 hvcurveto
            return
          </CharString>
          <CharString index="102">
            -131 402 rlineto
            -416 -12 hlineto
            return
          </CharString>
          <CharString index="103">
            572 1043 -46 callsubr
            return
          </CharString>
          <CharString index="104">
            rmoveto
            231 170 229 -170 return
          </CharString>
          <CharString index="105">
            vlineto
            89 20 23 129 20 vhcurveto
            99 return
          </CharString>
          <CharString index="106">
            1444 -87 callsubr
            return
          </CharString>
          <CharString index="107">
            -401 vlineto
            -122 -313 rlineto
            return
          </CharString>
          <CharString index="108">
            -333 256 -195 317 return
          </CharString>
          <CharString index="109">
            vlineto
            -72 -19 -19 -106 -15 vhcurveto
            -99 return
          </CharString>
          <CharString index="110">
            1751 84 719 rmoveto
            return
          </CharString>
          <CharString index="111">
            1187 71 505 rmoveto
            return
          </CharString>
          <CharString index="112">
            1153 rmoveto
            124 hlineto
            return
          </CharString>
          <CharString index="113">
            845 162 327 rmoveto
            return
          </CharString>
          <CharString index="114">
            231 -79 callsubr
            return
          </CharString>
          <CharString index="115">
            -99 vlineto
            -103 callsubr
            return
          </CharString>
          <CharString index="116">
            rmoveto
            128 78 89 157 return
          </CharString>
          <CharString index="117">
            rlineto
            -75 vlineto
            3 9 19 2 return
          </CharString>
          <CharString index="118">
            rmoveto
            352 -1136 327 0 309 1012 296 -1012 335 0 347 1123 55 177 31 29 114 17 rlinecurve
            99 -468 -99 vlineto
            138 -20 14 -32 -42 -162 rrcurveto
            -211 -786 -218 793 -44 157 11 28 137 22 rlinecurve
            99 -714 -99 vlineto
            134 -20 12 -28 -40 -151 rrcurveto
            -215 -802 -216 789 -43 159 15 32 142 21 rlinecurve
            99 -751 -99 vlineto
            110 -17 33 -29 50 -164 rrcurveto
            endchar
          </CharString>
          <CharString index="119">
            rmoveto
            448 100 vlineto
            360 -672 rlineto
            484 94 hlineto
            -67 26 -34 39 -125 227 rrcurveto
            -322 591 128 133 170 171 62 39 136 25 rlinecurve
            99 -530 -99 vlineto
            130 -17 18 -38 -100 -120 -312 -378 rcurveline
            -98 428 hlineto
            -37 callsubr
            -710 93 callsubr
            47 callsubr
            -47 callsubr
          </CharString>
          <CharString index="120">
            -144 -6 rcurveline
            1096 vlineto
            91 22 25 137 20 vhcurveto
            99 -732 8 callsubr
            47 callsubr
            vlineto
            return
          </CharString>
          <CharString index="121">
            1764 628 224 rmoveto
            102 callgsubr
            return
          </CharString>
          <CharString index="122">
            rmoveto
            -518 -65 0 -93 61 -73 callgsubr
            -564 -92 callgsubr
            171 callsubr
            endchar
          </CharString>
          <CharString index="123">
            rmoveto
            190 162 64 103 84 hvcurveto
            164 callsubr
            -331 256 -197 312 vhcurveto
            endchar
          </CharString>
          <CharString index="124">
            1421 550 1043 -105 callsubr
            -106 callsubr
            -85 callsubr
            return
          </CharString>
          <CharString index="125">
            -73 -45 90 241 240 40 86 71 73 45 -90 -241 -240 -40 -86 -71 hvcurveto
            return
          </CharString>
          <CharString index="126">
            249 247 -160 169 -219 -230 -159 -168 -248 -247 return
          </CharString>
          <CharString index="127">
            -37 callgsubr
            -84 vlineto
            22 30 54 17 56 hhcurveto
            74 52 callgsubr
            return
          </CharString>
          <CharString index="128">
            10 460 rlineto
            -94 hlineto
            -64 -107 callgsubr
            11 callgsubr
            endchar
          </CharString>
          <CharString index="129">
            1280 1227 hmoveto
            -10 callsubr
            13 callsubr
            return
          </CharString>
          <CharString index="130">
            -186 vlineto
            518 57 0 93 -62 18 rlineto
            -56 17 -9 17 64 vvcurveto
            return
          </CharString>
          <CharString index="131">
            1166 rmoveto
            239 125 155 173 25 -2 25 return
          </CharString>
          <CharString index="132">
            1153 -34 callsubr
            -335 vlineto
            -47 -402 rlineto
            return
          </CharString>
          <CharString index="133">
            90 51 rlineto
            332 192 113 150 330 vvcurveto
            endchar
          </CharString>
          <CharString index="134">
            rmoveto
            -90 -74 -65 -90 -91 74 -64 90 90 -86 callgsubr
          </CharString>
          <CharString index="135">
            -32 callgsubr
            273 0 216 312 rlineto
            return
          </CharString>
          <CharString index="136">
            106 -16 19 -19 -71 vvcurveto
            -617 2 callsubr
            return
          </CharString>
          <CharString index="137">
            1545 rmoveto
            91 74 65 89 91 -74 64 -91 return
          </CharString>
          <CharString index="138">
            -58 callgsubr
            -237 -23 callgsubr
            return
          </CharString>
          <CharString index="139">
            60 86 vhcurveto
            3 -110 81 callgsubr
            return
          </CharString>
          <CharString index="140">
            rmoveto
            172 vlineto
            -700 -179 rlineto
            -80 vlineto
            return
          </CharString>
          <CharString index="141">
            1617 744 112 callsubr
            return
          </CharString>
          <CharString index="142">
            15 hhcurveto
            64 42 -23 -45 -44 -43 -24 -61 return
          </CharString>
          <CharString index="143">
            1183 rmoveto
            64 callgsubr
            return
          </CharString>
          <CharString index="144">
            -189 -130 -86 -110 -51 vhcurveto
            return
          </CharString>
          <CharString index="145">
            -111 -3 hlineto
            -87 -90 -59 -130 return
          </CharString>
          <CharString index="146">
            99 vlineto
            -136 19 -23 30 98 vvcurveto
            return
          </CharString>
          <CharString index="147">
            -107 -86 -75 -106 -106 86 -76 107 hvcurveto
            return
          </CharString>
          <CharString index="148">
            rmoveto
            349 84 349 -84 0 83 return
          </CharString>
          <CharString index="149">
            1252 181 callsubr
            return
          </CharString>
          <CharString index="150">
            -478 -313 -327 -427 return
          </CharString>
          <CharString index="151">
            509 hmoveto
            64 callgsubr
            return
          </CharString>
          <CharString index="152">
            50 hhcurveto
            67 41 -25 -44 -43 -34 return
          </CharString>
          <CharString index="153">
            -14 rlineto
            -18 50 51 -14 54 hhcurveto
            return
          </CharString>
          <CharString index="154">
            -982 94 callsubr
            return
          </CharString>
          <CharString index="155">
            -722 8 callsubr
            return
          </CharString>
          <CharString index="156">
            -359 -95 -245 -224 return
          </CharString>
          <CharString index="157">
            -316 86 callsubr
            return
          </CharString>
          <CharString index="158">
            160 -170 219 hvcurveto
            return
          </CharString>
          <CharString index="159">
            95 245 224 206 return
          </CharString>
          <CharString index="160">
            rmoveto
            229 160 168 return
          </CharString>
          <CharString index="161">
            -108 27 121 -63 133 hhcurveto
            100 83 27 34 48 hvcurveto
            94 vlineto
            -4 -11 -15 -1 -16 hhcurveto
            -52 -42 33 80 hvcurveto
            427 vlineto
            263 -185 114 -315 -309 -189 -123 -150 -91 73 -62 99 101 74 71 91 49 -22 43 -34 28 vhcurveto
            7 28 31 3 32 hhcurveto
            146 82 -66 -168 hvcurveto
            -73 vlineto
            -209 -43 rlineto
            -329 -67 -113 -114 -154 vvcurveto
            -147 118 -106 187 vhcurveto
            79 315 rmoveto
            97 56 62 150 34 vhcurveto
            61 14 rlineto
            -274 vlineto
            -43 -24 -50 -29 -63 hhcurveto
            -73 -57 49 90 hvcurveto
            return
          </CharString>
          <CharString index="162">
            rmoveto
            -120 -173 -43 -31 -122 -19 rrcurveto
            -99 487 99 vlineto
            -138 21 -8 33 95 150 rrcurveto
            170 270 177 -279 87 -140 -7 -33 -138 -22 rlinecurve
            -99 774 99 vlineto
            -102 27 -44 35 -83 132 rrcurveto
            -305 482 240 350 117 171 44 30 123 19 rlinecurve
            99 -484 -99 vlineto
            137 -21 6 -33 -92 -150 rrcurveto
            -160 -258 -169 267 -88 142 7 31 138 22 rlinecurve
            99 -773 -99 vlineto
            103 -27 42 -35 83 -132 298 -469 rcurveline
            endchar
          </CharString>
          <CharString index="163">
            rmoveto
            -381 277 -194 350 362 239 227 362 3 vhcurveto
            6 810 rlineto
            -2 20 21 -2 19 hhcurveto
            163 106 70 123 112 -85 100 -122 54 hvcurveto
            -98 hlineto
            24 -29 17 -60 -1 -58 rrcurveto
            -123 -1 -82 -111 -187 hhcurveto
            -105 -99 hlineto
            143 -24 18 -22 1 -109 5 -618 rcurveline
            -256 1 -124 -136 -203 hhcurveto
            -204 -140 127 257 hvcurveto
            648 vlineto
            89 22 20 140 24 vhcurveto
            99 -733 -99 vlineto
            126 -22 22 -22 -89 vvcurveto
            endchar
          </CharString>
          <CharString index="164">
            rmoveto
            -631 -99 hlineto
            119 -17 23 -33 -2 -103 rrcurveto
            -25 -933 -4 -116 -18 -26 -121 -18 rlinecurve
            -99 442 99 vlineto
            -124 19 -18 25 117 vvcurveto
            -3 943 392 -1203 240 0 110 398 258 805 22 -978 2 -87 -23 -22 -120 -17 rlinecurve
            -99 709 99 vlineto
            -130 18 -19 22 -2 92 rrcurveto
            -24 982 -2 91 23 23 129 18 rlinecurve
            99 vlineto
            -636 2 -270 -942 rlineto
            endchar
          </CharString>
          <CharString index="165">
            286 -145 233 -214 120 vhcurveto
            -8 41 44 -5 45 hhcurveto
            169 117 68 131 1 hvcurveto
            1 111 -90 108 -127 55 rrcurveto
            -98 hlineto
            24 -29 17 -61 -56 vvcurveto
            -128 -2 -77 -102 -152 -104 -108 24 -134 hhcurveto
            43 callsubr
            hvcurveto
            467 16 rmoveto
            359 52 callsubr
            124 -262 -368 49 callsubr
            -89 callgsubr
            endchar
          </CharString>
          <CharString index="166">
            rmoveto
            285 -239 149 -420 vhcurveto
            -740 -78 callsubr
            -107 callsubr
            732 39 callsubr
            302 167 vlineto
            388 271 166 296 hvcurveto
            -445 -19 rmoveto
            -197 -110 -122 -207 -8 vhcurveto
            -64 -3 0 670 64 -3 rlineto
            219 -9 98 -131 -197 vvcurveto
            endchar
          </CharString>
          <CharString index="167">
            rmoveto
            -530 -65 0 -93 63 -18 rlineto
            60 -18 10 -16 -64 vvcurveto
            -455 vlineto
            -219 136 -118 205 186 126 86 110 198 callsubr
            endchar
          </CharString>
          <CharString index="168">
            196 166 62 106 86 vhcurveto
            -76 callgsubr
            -206 -143 119 218 -37 hvcurveto
            635 -53 callgsubr
            223 callsubr
            return
          </CharString>
          <CharString index="169">
            -55 17 -9 17 64 vvcurveto
            791 vlineto
            -522 -65 0 -93 62 -73 callgsubr
            -524 vlineto
            -43 -24 -55 -32 -68 hhcurveto
            -100 -57 61 117 hvcurveto
            return
          </CharString>
          <CharString index="170">
            rmoveto
            -6 -355 rlineto
            94 hlineto
            55 188 45 43 172 184 callsubr
            -95 hlineto
            -45 -88 callgsubr
            endchar
          </CharString>
          <CharString index="171">
            1565 rmoveto
            -248 -188 -246 188 -126 0 238 -402 269 0 237 402 rlineto
            return
          </CharString>
          <CharString index="172">
            761 99 vlineto
            -115 18 -30 30 -58 162 rrcurveto
            -907 275 rmoveto
            185 556 185 -556 rlineto
            return
          </CharString>
          <CharString index="173">
            538 vlineto
            262 -11 0 144 -262 -11 rlineto
            267 -84 vlineto
            -427 -310 rlineto
            -90 121 vlineto
            return
          </CharString>
          <CharString index="174">
            1380 71 501 -13 callsubr
            23 callsubr
            -25 callgsubr
            return
          </CharString>
          <CharString index="175">
            -40 -95 -56 hvcurveto
            102 hlineto
            183 60 70 62 79 vvcurveto
            90 -85 61 -124 vhcurveto
            return
          </CharString>
          <CharString index="176">
            1543 rmoveto
            123 hlineto
            -109 312 rlineto
            -416 -9 hlineto
            return
          </CharString>
          <CharString index="177">
            -450 334 -298 458 477 314 327 428 return
          </CharString>
          <CharString index="178">
            hhcurveto
            -128 -93 -99 -255 7 hvcurveto
            114 hlineto
            99 1 24 38 return
          </CharString>
          <CharString index="179">
            rmoveto
            230 170 229 -170 117 141 callsubr
          </CharString>
          <CharString index="180">
            39 -84 rlineto
            439 155 225 161 368 vvcurveto
            endchar
          </CharString>
          <CharString index="181">
            1901 rmoveto
            -119 -88 -51 -55 -43 hvcurveto
            -71 vlineto
            19 return
          </CharString>
          <CharString index="182">
            1884 rmoveto
            700 -86 0 79 -700 180 rlineto
            return
          </CharString>
          <CharString index="183">
            383 hmoveto
            69 55 44 61 62 -55 43 -69 hvcurveto
            -16 hlineto
            return
          </CharString>
          <CharString index="184">
            -1 hvcurveto
            -113 hlineto
            -53 -1 -25 -24 -48 hhcurveto
            -28 -31 8 return
          </CharString>
          <CharString index="185">
            1556 rmoveto
            84 67 60 84 85 -67 60 -84 -83 return
          </CharString>
          <CharString index="186">
            -102 70 -138 -95 -76 -32 -40 -32 hvcurveto
            -84 vlineto
            8 return
          </CharString>
          <CharString index="187">
            742 87 callsubr
            74 callgsubr
            return
          </CharString>
          <CharString index="188">
            20 31 6 32 hhcurveto
            57 -2 43 -20 -40 vvcurveto
            -40 return
          </CharString>
          <CharString index="189">
            -2 hvcurveto
            -113 hlineto
            -53 -26 -24 -47 -28 -31 8 return
          </CharString>
          <CharString index="190">
            722 99 vlineto
            -129 20 -20 23 89 vvcurveto
            return
          </CharString>
          <CharString index="191">
            117 0 -221 362 -251 0 return
          </CharString>
          <CharString index="192">
            -32 hvcurveto
            -84 vlineto
            8 81 callsubr
            return
          </CharString>
          <CharString index="193">
            167 -66 0 -316 -167 rlineto
            return
          </CharString>
          <CharString index="194">
            99 vlineto
            -137 19 -23 30 98 vvcurveto
            return
          </CharString>
          <CharString index="195">
            90 228 -6 hvcurveto
            -106 hlineto
            -88 -1 return
          </CharString>
          <CharString index="196">
            230 callsubr
            -12 39 hvcurveto
            41 return
          </CharString>
          <CharString index="197">
            -68 -55 -43 -62 -61 55 -44 68 hvcurveto
            return
          </CharString>
          <CharString index="198">
            -90 -74 -64 -90 -90 73 -65 91 hvcurveto
            return
          </CharString>
          <CharString index="199">
            -90 -74 -64 -91 -89 73 -65 91 hvcurveto
            return
          </CharString>
          <CharString index="200">
            -99 vlineto
            128 -20 21 -23 -89 vvcurveto
            return
          </CharString>
          <CharString index="201">
            vlineto
            -89 -21 -23 -128 -20 vhcurveto
            -99 return
          </CharString>
          <CharString index="202">
            -1176 -99 callsubr
            return
          </CharString>
          <CharString index="203">
            -710 -99 vlineto
            117 -19 20 return
          </CharString>
          <CharString index="204">
            -400 vlineto
            -122 -313 rlineto
            return
          </CharString>
          <CharString index="205">
            -336 vlineto
            -47 -402 rlineto
            endchar
          </CharString>
          <CharString index="206">
            666 -23 -99 callsubr
            return
          </CharString>
          <CharString index="207">
            372 -23 -97 callsubr
            return
          </CharString>
          <CharString index="208">
            99 vlineto
            -106 15 -19 19 72 vvcurveto
            return
          </CharString>
          <CharString index="209">
            91 73 65 90 90 -73 64 -91 return
          </CharString>
          <CharString index="210">
            83 67 60 84 85 -67 60 -83 return
          </CharString>
          <CharString index="211">
            -81 -71 -100 -100 81 -71 100 hvcurveto
            return
          </CharString>
          <CharString index="212">
            rmoveto
            354 282 161 308 221 -128 153 -281 88 hvcurveto
            -131 40 rlineto
            -152 48 -73 62 102 vvcurveto
            108 82 77 155 182 129 -122 -210 45 vhcurveto
            94 hlineto
            -9 366 rlineto
            60 -92 -166 40 -195 hhcurveto
            -395 -239 -182 -278 -216 142 -150 266 -82 hvcurveto
            131 -41 rlineto
            158 -49 68 -68 -108 vvcurveto
            -114 -93 -80 -153 -195 -167 127 238 -51 vhcurveto
            -94 hlineto
            11 -391 rlineto
            -62 106 199 -46 210 hhcurveto
            return
          </CharString>
          <CharString index="213">
            rmoveto
            -178 133 -95 196 -54 vhcurveto
            99 -26 rlineto
            108 -30 43 -35 -63 vvcurveto
            -68 -63 -46 -114 -172 -104 109 130 -34 vhcurveto
            -94 hlineto
            7 -279 rlineto
            -51 94 156 -37 163 hhcurveto
            319 202 133 216 175 -104 101 -219 58 hvcurveto
            -98 25 rlineto
            -106 30 -52 34 63 vvcurveto
            67 59 41 107 137 89 -79 -126 39 vhcurveto
            94 hlineto
            -5 266 rlineto
            36 -72 -129 31 -163 hhcurveto
            -329 -187 -134 -214 hvcurveto
            return
          </CharString>
          <CharString index="214">
            rmoveto
            -231 312 179 229 80 107 40 29 93 14 rlinecurve
            99 -415 -100 vlineto
            104 -15 6 -25 -70 -104 rrcurveto
            -94 -130 -97 131 -73 102 8 27 106 15 rlinecurve
            99 -637 -99 vlineto
            62 -15 32 -23 75 -99 rrcurveto
            231 -313 -172 -212 -93 -118 -38 -30 -104 -19 rlinecurve
            -99 429 99 vlineto
            -96 15 -13 27 72 105 rrcurveto
            92 128 96 -129 73 -103 -11 -27 -102 -16 rlinecurve
            -99 639 99 vlineto
            -64 16 -34 25 -73 97 rrcurveto
            endchar
          </CharString>
          <CharString index="215">
            328 -177 196 -237 -159 -124 -77 -116 -50 vhcurveto
            5 651 -522 -64 0 -93 61 -18 rlineto
            55 -18 9 -16 -64 vvcurveto
            -1235 223 vlineto
            119 135 rlineto
            -86 53 118 -71 148 hhcurveto
            262 216 197 351 hvcurveto
            -406 -30 rmoveto
            -240 -82 -125 -120 -64 -51 32 38 -19 vhcurveto
            577 vlineto
            47 22 52 32 64 hhcurveto
            118 80 -125 -236 hvcurveto
            return
          </CharString>
          <CharString index="216">
            rmoveto
            -115 -102 -45 -52 -55 hvcurveto
            -94 vlineto
            4 8 18 3 19 hhcurveto
            63 25 -37 -102 hvcurveto
            -76 -5 -167 -77 vvcurveto
            -267 161 -158 293 309 213 240 380 290 -101 162 -162 -136 -79 -130 -165 36 vhcurveto
            160 -23 106 -139 -167 vvcurveto
            -160 -87 -93 -120 -124 -68 91 169 -1 vhcurveto
            71 6 170 74 vvcurveto
            197 -88 101 -174 vhcurveto
            endchar
          </CharString>
          <CharString index="217">
            1670 835 -28 rmoveto
            413 338 338 413 413 -338 338 -413 -413 -338 -338 -413 -413 339 -338 412 hvcurveto
            79 vmoveto
            -363 -300 303 369 369 299 303 364 364 299 -303 -369 -369 -300 -303 -363 hvcurveto
            return
          </CharString>
          <CharString index="218">
            rmoveto
            212 137 110 183 -7 hvcurveto
            -113 hlineto
            -65 -6 -93 -43 -130 hhcurveto
            -129 -93 44 64 -6 hvcurveto
            -113 hlineto
            -183 -7 137 -110 211 hhcurveto
            -215 -1142 -97 callsubr
            -95 callsubr
          </CharString>
          <CharString index="219">
            rmoveto
            453 -346 247 -525 vhcurveto
            -691 -78 callsubr
            -107 callsubr
            -43 callgsubr
            -467 -23 146 callsubr
            -67 callgsubr
            return
          </CharString>
          <CharString index="220">
            rmoveto
            221 -181 127 -274 17 vhcurveto
            210 15 182 101 187 vvcurveto
            225 -225 123 -392 vhcurveto
            -747 -78 callsubr
            -107 callsubr
            201 callsubr
            endchar
          </CharString>
          <CharString index="221">
            rmoveto
            13 -702 rlineto
            -243 5 121 -105 203 hhcurveto
            149 127 67 87 63 hvcurveto
            94 vlineto
            -21 -35 -46 -12 -52 hhcurveto
            -103 -66 55 134 4 hvcurveto
            27 21 544 3 75 vhcurveto
            endchar
          </CharString>
          <CharString index="222">
            1587 175 1219 rmoveto
            -671 vlineto
            -383 276 -194 351 377 224 232 359 5 vhcurveto
            7 623 2 114 17 165 callsubr
            return
          </CharString>
          <CharString index="223">
            13 -38 hvcurveto
            -40 14 rlineto
            18 -50 -50 14 -55 -39 callgsubr
            53 26 24 48 28 31 -8 -13 38 vhcurveto
            return
          </CharString>
          <CharString index="224">
            rmoveto
            212 136 110 183 -7 hvcurveto
            -112 hlineto
            -65 -6 -93 -43 -130 hhcurveto
            -130 -93 44 64 -6 hvcurveto
            -112 hlineto
            -183 -7 136 -110 212 hhcurveto
            endchar
          </CharString>
          <CharString index="225">
            1908 rmoveto
            -220 -116 -135 -149 -22 2 -21 3 -16 hvcurveto
            110 3 hlineto
            86 91 60 130 128 92 -61 -85 vhcurveto
            -3 111 -62 callgsubr
            return
          </CharString>
          <CharString index="226">
            1359 rmoveto
            -133 138 -88 192 192 138 88 133 132 -138 89 -192 -192 -138 -90 -131 vhcurveto
            235 hmoveto
            73 return
          </CharString>
          <CharString index="227">
            1543 rmoveto
            231 141 229 -141 -55 callgsubr
            return
          </CharString>
          <CharString index="228">
            -51 -52 12 -56 hhcurveto
            -130 -80 -76 -133 1 hvcurveto
            116 hlineto
            45 26 21 49 29 31 -7 -12 39 vhcurveto
            41 return
          </CharString>
          <CharString index="229">
            1822 rmoveto
            69 55 43 61 63 -55 43 -69 hvcurveto
            -16 hlineto
            -69 -55 -43 -63 -61 55 -43 69 hvcurveto
            return
          </CharString>
          <CharString index="230">
            1553 rmoveto
            -238 -125 -156 -173 -25 1 -24 4 -19 hvcurveto
            114 3 hlineto
            98 return
          </CharString>
          <CharString index="231">
            1565 rmoveto
            -248 -188 -246 188 -126 0 238 -24 callgsubr
            return
          </CharString>
          <CharString index="232">
            69 14 17 86 14 vhcurveto
            99 -621 -99 vlineto
            29 callsubr
            -76 callsubr
            endchar
          </CharString>
          <CharString index="233">
            -99 vlineto
            81 -13 13 -17 -70 vvcurveto
            -713 -276 713 vlineto
            70 13 17 81 13 vhcurveto
            99 return
          </CharString>
          <CharString index="234">
            1865 rmoveto
            700 -87 0 80 -700 179 rlineto
            1 -541 rmoveto
            349 84 return
          </CharString>
          <CharString index="235">
            rmoveto
            -6 -355 rlineto
            93 hlineto
            55 188 46 43 171 184 callsubr
            -94 hlineto
            return
          </CharString>
          <CharString index="236">
            384 hmoveto
            68 55 44 61 62 -55 43 -68 hvcurveto
            -17 hlineto
            90 callsubr
            endchar
          </CharString>
          <CharString index="237">
            341 99 341 -99 0 98 -309 197 -64 0 -309 -197 rlineto
            endchar
          </CharString>
          <CharString index="238">
            rmoveto
            -90 -73 -65 -90 -91 73 -64 90 91 73 64 91 90 -73 65 -91 hvcurveto
            endchar
          </CharString>
          <CharString index="239">
            -40 -24 -67 -54 -55 16 20 -31 vhcurveto
            -87 vlineto
            -38 44 81 -28 98 hhcurveto
            endchar
          </CharString>
          <CharString index="240">
            -99 vlineto
            106 -15 19 -20 -72 vvcurveto
            -616 vlineto
            -71 -19 -20 -106 -15 vhcurveto
            -99 return
          </CharString>
          <CharString index="241">
            -21 -117 -17 vhcurveto
            -99 709 99 vlineto
            -128 19 -21 22 91 vvcurveto
            return
          </CharString>
          <CharString index="242">
            1543 rmoveto
            123 hlineto
            -109 312 rlineto
            -415 -9 hlineto
            return
          </CharString>
          <CharString index="243">
            89 51 rlineto
            332 192 114 150 330 vvcurveto
            endchar
          </CharString>
          <CharString index="244">
            0 341 -35 callsubr
            -682 -211 rlineto
            -93 vlineto
            return
          </CharString>
          <CharString index="245">
            -51 -50 15 18 -29 hvcurveto
            -1 -95 rlineto
            -41 48 85 -27 98 hhcurveto
            return
          </CharString>
          <CharString index="246">
            1547 rmoveto
            683 -101 0 93 -683 211 rlineto
            return
          </CharString>
          <CharString index="247">
            156 135 -104 callgsubr
            -3 -3 0 -4 hhcurveto
            return
          </CharString>
          <CharString index="248">
            0 -221 362 -250 0 -221 -362 rlineto
            endchar
          </CharString>
          <CharString index="249">
            -42 callsubr
            -74 -64 -91 -89 74 -65 91 hvcurveto
            return
          </CharString>
          <CharString index="250">
            1183 rmoveto
            101 81 71 100 100 -81 71 -101 -100 return
          </CharString>
          <CharString index="251">
            82 71 100 100 -82 71 -100 -100 -71 callgsubr
            return
          </CharString>
          <CharString index="252">
            -35 -45 hhcurveto
            -29 -25 13 25 -37 hvcurveto
            -30 20 rlineto
            38 return
          </CharString>
          <CharString index="253">
            rmoveto
            -368 -175 -228 -275 -9 vhcurveto
            -72 -3 return
          </CharString>
          <CharString index="254">
            1884 rmoveto
            173 vlineto
            -700 -180 rlineto
            return
          </CharString>
          <CharString index="255">
            -7 callsubr
            -6 hvcurveto
            -114 hlineto
            -98 -2 return
          </CharString>
          <CharString index="256">
            -628 rmoveto
            199 hlineto
            921 1444 rlineto
            return
          </CharString>
          <CharString index="257">
            -313 -12 hlineto
            215 -390 rlineto
            131 hlineto
            return
          </CharString>
          <CharString index="258">
            -6 hvcurveto
            -113 hlineto
            -90 -2 -22 -34 -45 hhcurveto
            -29 return
          </CharString>
          <CharString index="259">
            -41 -24 -66 -54 -55 16 20 -31 vhcurveto
            -87 vlineto
            -38 return
          </CharString>
          <CharString index="260">
            -34 callsubr
            -336 vlineto
            -47 -402 rlineto
            return
          </CharString>
          <CharString index="261">
            rmoveto
            223 424 -278 0 -47 -424 rlineto
            return
          </CharString>
          <CharString index="262">
            rlineto
            -75 vlineto
            3 8 20 2 35 callsubr
            return
          </CharString>
          <CharString index="263">
            1369 910 hmoveto
            162 callsubr
            return
          </CharString>
          <CharString index="264">
            rmoveto
            187 154 92 185 37 hvcurveto
            -171 81 187 -106 195 hhcurveto
            192 162 63 102 86 hvcurveto
            99 vlineto
            -44 -52 -89 -27 -85 hhcurveto
            -200 -140 120 220 -35 hvcurveto
            620 hlineto
            4 21 2 36 36 vvcurveto
            271 -180 175 -288 -126 -118 -44 -68 -68 vhcurveto
            72 -58 -118 40 -174 hhcurveto
            -266 -187 -113 -146 -88 68 -65 97 106 78 70 89 45 -20 40 -32 28 hvcurveto
            5 25 28 3 29 hhcurveto
            149 84 -75 -174 hvcurveto
            -60 vlineto
            -212 -37 rlineto
            -309 -51 -130 -114 -167 vvcurveto
            -169 134 -93 182 vhcurveto
            671 648 rmoveto
            191 60 105 99 92 42 -94 -160 vhcurveto
            -18 0 -14 -12 vvcurveto
            -293 -1 rlineto
            0 0 2 1 hvcurveto
            -489 -468 rmoveto
            -70 -48 48 89 104 67 64 152 28 hvcurveto
            52 10 rlineto
            -136 vlineto
            -149 -68 -58 -85 vhcurveto
            endchar
          </CharString>
          <CharString index="265">
            rmoveto
            -1128 hlineto
            -523 -1101 -93 -198 -47 -31 -106 -15 rlinecurve
            -99 478 99 vlineto
            -131 21 -21 45 78 176 rrcurveto
            99 223 425 0 5 -340 rlineto
            -87 -20 -21 -117 -17 vhcurveto
            -99 1145 vlineto
            10 460 rlineto
            -93 hlineto
            -61 -277 -60 -48 -244 -13 rrcurveto
            -167 -9 -6 567 129 -2 93 -2 28 -39 30 -161 rlinecurve
            89 hlineto
            -6 522 rlineto
            -88 hlineto
            -28 -161 -27 -39 -93 -3 rrcurveto
            -129 -1 -6 537 143 -7 242 -13 58 -49 59 -233 rlinecurve
            95 hlineto
            -1063 301 rmoveto
            72 hlineto
            9 -642 rlineto
            -368 hlineto
            endchar
          </CharString>
          <CharString index="266">
            rmoveto
            238 -2 -195 157 -428 hhcurveto
            -748 -99 hlineto
            129 -20 20 -22 -90 vvcurveto
            -107 callsubr
            710 99 vlineto
            -118 19 -19 22 84 vvcurveto
            395 138 vlineto
            289 -619 rlineto
            462 94 hlineto
            -55 19 -39 37 -93 189 rrcurveto
            -177 368 174 53 102 122 -1 167 rlinecurve
            -423 -24 rmoveto
            -182 -124 -101 -174 -7 vhcurveto
            -79 -3 0 599 71 -3 rlineto
            201 -8 105 -116 -179 vvcurveto
            return
          </CharString>
          <CharString index="267">
            1566 628 224 rmoveto
            448 100 vlineto
            360 -672 rlineto
            484 94 hlineto
            -67 26 -34 39 -125 227 rrcurveto
            -322 591 128 133 170 171 62 39 136 25 rlinecurve
            99 -530 -99 vlineto
            130 -17 18 -38 -100 -120 -312 -378 rcurveline
            -98 428 hlineto
            -37 callsubr
            -710 93 callsubr
            47 callsubr
            -52 callsubr
            return
          </CharString>
          <CharString index="268">
            rmoveto
            325 -178 198 -237 -161 -123 -81 -114 -48 vhcurveto
            189 vlineto
            -516 -65 0 -93 60 -18 rlineto
            55 -17 10 -17 -64 vvcurveto
            -1024 -92 callgsubr
            333 vlineto
            -66 47 112 -47 114 35 callgsubr
            -51 31 39 -19 vhcurveto
            577 vlineto
            48 22 51 32 64 hhcurveto
            120 79 -131 -231 hvcurveto
            endchar
          </CharString>
          <CharString index="269">
            464 94 hlineto
            -61 22 -41 38 -105 205 rrcurveto
            -198 380 3 3 157 130 65 33 128 23 rlinecurve
            99 -514 -99 vlineto
            139 -21 5 -45 -109 -102 -182 -180 rcurveline
            -84 929 hlineto
            -90 callgsubr
            -63 callsubr
            -76 callsubr
            268 vlineto
            88 -1 rlineto
            return
          </CharString>
          <CharString index="270">
            195 -471 vlineto
            162 87 rlineto
            202 107 90 87 111 vvcurveto
            127 -103 102 -172 -183 -111 -96 -142 -45 vhcurveto
            60 -29 rlineto
            65 29 56 45 78 hhcurveto
            83 49 -46 -69 -78 -45 -66 -131 -115 hvcurveto
            -162 -137 rlineto
            -149 vlineto
            endchar
          </CharString>
          <CharString index="271">
            99 vlineto
            -45 -53 -95 -26 -87 hhcurveto
            -202 -161 142 258 211 111 129 159 30 28 -4 -8 24 hvcurveto
            -58 -25 -41 -61 -70 vvcurveto
            -95 76 -72 97 95 80 71 109 164 -149 128 -269 -327 -262 -208 -336 return
          </CharString>
          <CharString index="272">
            27 120 19 rlinecurve
            99 -444 -99 vlineto
            132 -20 19 -27 2 -118 7 -589 rcurveline
            -275 3 -133 -136 -206 hhcurveto
            -198 -137 129 257 hvcurveto
            647 -2 callsubr
            96 callsubr
            -21 -86 vvcurveto
            return
          </CharString>
          <CharString index="273">
            -320 243 -210 352 hvcurveto
            10 128 rmoveto
            -118 -75 155 262 253 62 146 120 118 75 -155 -261 -254 -63 -146 -119 hvcurveto
            return
          </CharString>
          <CharString index="274">
            -199 hlineto
            -970 -728 rmoveto
            18 callsubr
            1216 -733 rmoveto
            230 160 168 249 247 -160 169 -220 -57 callgsubr
            return
          </CharString>
          <CharString index="275">
            14 -38 hvcurveto
            -40 14 rlineto
            17 -50 -50 14 -55 -39 callgsubr
            54 26 23 48 28 31 -8 -13 return
          </CharString>
          <CharString index="276">
            1254 vlineto
            -522 -62 0 -93 61 -18 rlineto
            56 -18 9 -16 -64 vvcurveto
            -299 vlineto
            67 -48 -111 46 -116 hhcurveto
            -257 -210 -197 -351 hvcurveto
            return
          </CharString>
          <CharString index="277">
            rmoveto
            209 43 187 147 221 vvcurveto
            151 -90 102 -133 -138 -83 -113 -141 vhcurveto
            104 -5 70 -59 -90 vvcurveto
            -86 -67 -56 -88 -21 vhcurveto
            return
          </CharString>
          <CharString index="278">
            454 vlineto
            38 43 106 27 105 hhcurveto
            66 67 -11 -14 35 hvcurveto
            15 30 11 53 53 vvcurveto
            110 -49 88 -106 -114 -93 -91 -220 -91 vhcurveto
            return
          </CharString>
          <CharString index="279">
            1067 574 1043 rmoveto
            -518 -65 0 -93 61 -73 callgsubr
            -564 -92 callgsubr
            171 callsubr
            return
          </CharString>
          <CharString index="280">
            -5 hvcurveto
            -114 hlineto
            -90 -1 -22 -34 -45 hhcurveto
            -30 -24 12 25 -37 -17 callgsubr
            -122 179 callsubr
            return
          </CharString>
          <CharString index="281">
            -4 hlineto
            -98 -100 -69 -145 -143 -18 callgsubr
            -1 -24 -25 vvcurveto
            -173 125 -155 238 vhcurveto
            return
          </CharString>
          <CharString index="282">
            -62 -54 22 -68 71 callsubr
            49 hhcurveto
            31 27 -14 -27 39 hvcurveto
            33 -23 rlineto
            -43 62 54 -22 68 hhcurveto
            return
          </CharString>
          <CharString index="283">
            13 -38 vhcurveto
            -40 14 rlineto
            18 -50 -51 14 -54 -39 callgsubr
            53 26 24 -46 callgsubr
            endchar
          </CharString>
          <CharString index="284">
            2 360 rlineto
            265 111 -264 hlineto
            1 184 -396 -49 rlineto
            -135 -126 vlineto
            endchar
          </CharString>
          <CharString index="285">
            88 rmoveto
            -74 -44 90 241 240 39 86 71 74 44 -90 -241 -240 -40 -86 -70 hvcurveto
            return
          </CharString>
          <CharString index="286">
            -89 -92 -237 6 hvcurveto
            113 hlineto
            90 1 22 34 46 hhcurveto
            29 24 -13 -24 38 hvcurveto
            return
          </CharString>
          <CharString index="287">
            -99 hlineto
            105 -15 20 -20 -72 vvcurveto
            -616 vlineto
            -72 -20 -20 -105 232 callsubr
            return
          </CharString>
          <CharString index="288">
            vlineto
            11 460 rlineto
            -94 hlineto
            -6 callgsubr
            -27 -39 -95 47 callgsubr
            return
          </CharString>
          <CharString index="289">
            43 22 56 33 70 hhcurveto
            94 60 -20 callgsubr
            200 callsubr
            endchar
          </CharString>
          <CharString index="290">
            -58 -60 -74 -47 25 -41 36 -23 hvcurveto
            -20 -41 -52 -12 -56 hhcurveto
            -57 -51 12 20 return
          </CharString>
          <CharString index="291">
            8 rrcurveto
            126 5 -501 -827 rlineto
            -89 944 vlineto
            5 372 rlineto
            return
          </CharString>
          <CharString index="292">
            -119 -801 rmoveto
            199 hlineto
            922 1444 rlineto
            -199 hlineto
            return
          </CharString>
          <CharString index="293">
            94 75 64 90 90 -75 64 -94 -93 -76 -64 -90 -90 76 -64 93 hvcurveto
            return
          </CharString>
          <CharString index="294">
            91 73 64 90 90 -73 65 -91 -91 -73 -65 -90 -90 73 -64 91 hvcurveto
            return
          </CharString>
          <CharString index="295">
            -215 76 -180 130 -129 vhcurveto
            -130 -136 84 -82 136 141 rlineto
            -94 133 171 -53 192 hhcurveto
            477 314 327 428 214 -76 180 -130 130 hvcurveto
            129 135 -84 82 -135 -141 rlineto
            94 -133 -171 53 -192 hhcurveto
            43 callsubr
            hvcurveto
            467 16 rmoveto
            359 95 245 224 124 94 -95 -156 56 vhcurveto
            -572 -598 rlineto
            -14 74 -7 83 88 vvcurveto
            649 -26 rmoveto
            49 callsubr
            -125 -94 95 156 -55 vhcurveto
            572 598 rlineto
            13 -74 8 -82 -89 vvcurveto
            endchar
          </CharString>
          <CharString index="296">
            rmoveto
            349 250 221 320 146 -51 123 -88 91 hvcurveto
            98 95 -78 81 -107 -105 rlineto
            63 -98 -124 35 -142 hhcurveto
            -349 -250 -221 -320 -148 52 -124 90 -91 hvcurveto
            -91 -90 78 -81 101 100 rlineto
            -61 97 123 -34 140 hhcurveto
            -189 544 rmoveto
            253 65 148 123 76 59 -63 -112 34 vhcurveto
            -351 -344 rlineto
            -4 36 -2 40 42 vvcurveto
            199 -418 rmoveto
            -75 -59 60 108 -33 hvcurveto
            349 343 rlineto
            4 -34 2 -37 -40 vvcurveto
            -253 -66 -147 -122 vhcurveto
            endchar
          </CharString>
          <CharString index="297">
            rmoveto
            -296 174 -163 219 185 121 117 171 65 vhcurveto
            -163 45 113 -125 205 hhcurveto
            268 185 246 336 303 -118 187 -168 -151 -83 -155 -161 67 hvcurveto
            162 -28 108 -140 -160 vvcurveto
            -127 -70 -78 -100 -126 -77 116 258 vhcurveto
            210 -328 -215 vlineto
            -274 -60 -93 -93 -92 -48 97 182 203 62 184 119 112 vhcurveto
            -63 69 rlineto
            -323 -76 -198 -238 -299 vvcurveto
            endchar
          </CharString>
          <CharString index="298">
            rmoveto
            174 106 101 180 87 hvcurveto
            -191 46 84 -85 143 hhcurveto
            101 93 50 80 59 hvcurveto
            93 vlineto
            -11 -15 -23 -10 -27 hhcurveto
            -66 -57 51 243 -61 hvcurveto
            -7 26 230 522 rlineto
            -354 hlineto
            -16 -77 -20 -84 -22 -86 rrcurveto
            173 -72 -113 98 -204 hhcurveto
            -276 -187 -224 -324 -344 177 -181 220 hvcurveto
            8 559 rmoveto
            234 55 132 90 85 41 -85 -214 33 vhcurveto
            29 -196 rlineto
            -160 -59 -55 -64 -73 hhcurveto
            -94 -52 130 223 hvcurveto
            endchar
          </CharString>
          <CharString index="299">
            rmoveto
            261 186 99 150 94 hvcurveto
            98 vlineto
            -73 -61 -131 -43 -147 -1 rrcurveto
            -147 -1 -85 42 76 vvcurveto
            80 85 42 167 vhcurveto
            71 hlineto
            -50 223 rlineto
            -45 hlineto
            -176 -72 43 74 73 74 48 149 57 51 -6 -11 42 hvcurveto
            -31 -25 -20 -39 -45 vvcurveto
            -75 52 -62 95 81 62 66 80 130 -136 117 -329 -336 -181 -125 -178 -164 147 -88 226 -5 vhcurveto
            -247 -10 -151 -83 -149 vvcurveto
            -172 187 -98 270 vhcurveto
            endchar
          </CharString>
          <CharString index="300">
            rmoveto
            105 79 41 62 32 hvcurveto
            -62 16 77 -37 82 hhcurveto
            62 53 16 21 29 hvcurveto
            63 vlineto
            -1 -6 -8 -1 -10 hhcurveto
            -29 -24 19 42 hvcurveto
            217 vlineto
            157 -113 68 -195 -192 -112 -75 -86 -56 45 -38 63 64 47 45 57 25 -9 21 -15 17 vhcurveto
            2 11 13 1 12 hhcurveto
            84 46 -38 -89 hvcurveto
            -33 vlineto
            -122 -25 rlineto
            -199 -39 -66 -68 -83 vvcurveto
            -82 68 -61 107 callgsubr
            6 rlineto
            -138 vlineto
            -19 -11 -27 -13 -33 hhcurveto
            -38 -31 22 44 hvcurveto
            endchar
          </CharString>
          <CharString index="301">
            196 -90 154 -156 82 hvcurveto
            -14 51 58 -7 56 hhcurveto
            157 108 68 121 1 hvcurveto
            1 110 -87 109 -125 53 rrcurveto
            -98 hlineto
            24 -29 17 -60 -57 vvcurveto
            -123 -1 -82 -100 -159 -85 -76 27 -123 hhcurveto
            -349 -241 -229 -313 -321 238 -209 357 hvcurveto
            10 128 rmoveto
            -119 -74 156 262 254 61 144 121 118 75 -155 -262 -255 -62 -144 -120 hvcurveto
            return
          </CharString>
          <CharString index="302">
            rmoveto
            -104 88 -76 113 168 117 113 263 143 vhcurveto
            448 829 67 125 27 26 116 18 rlinecurve
            99 -463 -99 vlineto
            154 -19 9 -23 -62 -129 rrcurveto
            -239 -489 -258 504 -59 115 6 23 148 18 rlinecurve
            99 -755 -99 vlineto
            112 -18 26 -27 63 -112 rrcurveto
            501 -896 -39 -72 -39 -52 -42 -33 rlinecurve
            4 0 4 4 vvcurveto
            98 -76 82 -98 -100 -76 -79 -97 vhcurveto
            endchar
          </CharString>
          <CharString index="303">
            rmoveto
            110 95 49 67 40 hvcurveto
            96 vlineto
            -13 -13 -23 -9 -28 hhcurveto
            -72 -57 85 119 24 5 28 8 22 hvcurveto
            309 32 214 212 294 vvcurveto
            -102 callsubr
            -304 219 -205 323 -20 vhcurveto
            -95 -69 -70 -92 -99 vvcurveto
            -120 104 -85 130 vhcurveto
            -6 592 rmoveto
            -118 -75 155 262 253 62 146 120 118 75 -155 -261 -254 -63 -146 -119 hvcurveto
            endchar
          </CharString>
          <CharString index="304">
            408 hlineto
            44 -9 715 0 vhcurveto
            55 23 54 36 73 hhcurveto
            103 57 -65 -179 -321 -4 -366 -10 -379 hvcurveto
            407 hlineto
            -2 1108 rlineto
            285 -142 116 -218 -191 -125 -96 -119 -44 vhcurveto
            128 -18 -79 83 -146 hhcurveto
            -106 -100 -46 -51 -53 hvcurveto
            -95 vlineto
            5 9 19 3 20 hhcurveto
            73 30 -40 -111 -3 hvcurveto
            -31 -21 -587 -5 -92 vhcurveto
            endchar
          </CharString>
          <CharString index="305">
            52 vhcurveto
            -187 vlineto
            526 57 0 93 -64 18 rlineto
            -61 18 -10 16 64 vvcurveto
            687 vlineto
            -2 17 18 -1 20 hhcurveto
            130 97 67 121 1 hvcurveto
            1 109 -89 106 -129 52 rrcurveto
            -98 hlineto
            22 -26 18 -54 -61 vvcurveto
            -147 -104 -79 -295 -32 vhcurveto
            -139 -14 0 -93 63 -18 rlineto
            61 -18 10 -16 -64 vvcurveto
            -524 vlineto
            -43 -24 -54 -32 -69 hhcurveto
            -100 -56 61 117 hvcurveto
            return
          </CharString>
          <CharString index="306">
            rmoveto
            678 vlineto
            252 -11 0 144 -252 -11 rlineto
            198 vlineto
            129 46 53 75 6 vhcurveto
            -19 -22 -11 -29 -31 vvcurveto
            -80 59 -54 76 73 61 55 79 117 -107 91 -209 -256 -179 -146 -289 vhcurveto
            -72 vlineto
            -130 -49 rlineto
            -90 126 -678 vlineto
            -72 -20 -20 -106 -14 vhcurveto
            -99 664 99 vlineto
            -121 16 -22 21 81 vvcurveto
            endchar
          </CharString>
          <CharString index="307">
            -86 -13 vhcurveto
            -99 595 99 vlineto
            -85 13 -14 17 69 vvcurveto
            534 vlineto
            19 -1 18 -3 16 vhcurveto
            42 23 56 30 70 hhcurveto
            95 61 -20 callgsubr
            -85 -13 vhcurveto
            -99 620 101 callsubr
            507 vlineto
            220 -135 117 -211 -186 -132 -92 -107 -47 vhcurveto
            130 -36 -125 69 -167 hhcurveto
            -184 -131 -90 -106 -46 hvcurveto
            return
          </CharString>
          <CharString index="308">
            747 vlineto
            367 313 147 281 hvcurveto
            -489 635 rmoveto
            -166 -95 -83 -164 -1 vhcurveto
            -106 -1 0 519 73 -3 rlineto
            196 -7 96 -99 -159 vvcurveto
            43 -652 rmoveto
            -188 -126 -100 -209 -7 vhcurveto
            -73 -3 0 586 106 -1 rlineto
            196 -2 106 -113 -172 vvcurveto
            return
          </CharString>
          <CharString index="309">
            rmoveto
            340 252 218 323 325 -236 206 -349 -342 -253 -217 -323 -324 237 -208 351 hvcurveto
            8 128 rmoveto
            -117 -67 157 262 254 59 143 116 114 68 -156 -263 -254 -59 -143 -114 hvcurveto
            endchar
          </CharString>
          <CharString index="310">
            400 -1136 339 0 399 1122 63 177 28 29 116 18 rlinecurve
            99 -475 -99 vlineto
            146 -22 19 -34 -53 -166 rrcurveto
            -266 -818 -269 823 -52 162 21 34 142 21 rlinecurve
            99 -761 -99 vlineto
            115 -18 31 -30 57 -162 rrcurveto
            return
          </CharString>
          <CharString index="311">
            rmoveto
            196 -161 120 -298 vhcurveto
            -205 -31 callgsubr
            -663 -99 vlineto
            29 callsubr
            739 vlineto
            274 172 122 200 hvcurveto
            -598 202 rmoveto
            132 -3 67 -78 -123 vvcurveto
            -124 -76 -74 -127 -6 vhcurveto
            -62 -2 rlineto
            410 vlineto
            endchar
          </CharString>
          <CharString index="312">
            1444 453 rmoveto
            277 -235 161 -381 vhcurveto
            -200 307 hlineto
            99 23 29 136 19 vhcurveto
            99 -732 8 callsubr
            -107 callsubr
            781 vlineto
            387 221 184 269 hvcurveto
            return
          </CharString>
          <CharString index="313">
            rmoveto
            261 93 vlineto
            233 -459 rlineto
            459 94 hlineto
            -65 22 -37 46 -94 186 rrcurveto
            -197 380 4 4 162 154 60 23 118 19 rlinecurve
            99 -479 -99 vlineto
            117 -17 14 -43 -103 -102 -194 -193 rcurveline
            -91 255 hlineto
            125 callsubr
          </CharString>
          <CharString index="314">
            294 -757 261 0 289 742 58 148 22 20 90 18 rlinecurve
            99 -394 -99 vlineto
            117 -13 12 -28 -44 -135 rrcurveto
            -143 -417 -142 417 -44 135 13 28 119 13 rlinecurve
            99 -670 -99 vlineto
            88 -19 24 -24 50 -128 rrcurveto
            return
          </CharString>
          <CharString index="315">
            -428 302 -290 423 -28 vhcurveto
            -95 -61 -70 -94 -100 vvcurveto
            -124 102 -81 135 112 96 48 73 41 vhcurveto
            95 vlineto
            -13 -14 -26 -10 -30 hhcurveto
            -67 -64 72 106 34 7 31 10 24 hvcurveto
            438 31 283 316 406 vvcurveto
            -101 callsubr
          </CharString>
          <CharString index="316">
            1555 1482 428 rmoveto
            221 -181 127 -274 17 vhcurveto
            210 15 182 101 187 vvcurveto
            225 -225 123 -392 vhcurveto
            -747 -78 callsubr
            -107 callsubr
            201 callsubr
            return
          </CharString>
          <CharString index="317">
            389 -262 rmoveto
            155 102 47 72 71 -102 47 -155 hvcurveto
            -78 hlineto
            -154 -103 -47 -71 -72 103 -47 154 hvcurveto
            56 67 rmoveto
            -35 hlineto
            -45 -24 21 31 31 25 20 44 hvcurveto
            35 hlineto
            44 26 -20 -31 -31 -26 -21 -44 hvcurveto
            return
          </CharString>
          <CharString index="318">
            hmoveto
            655 388 hlineto
            -172 64 -85 160 267 vvcurveto
            306 132 157 202 211 133 -172 -309 -263 -93 -146 -164 -67 vhcurveto
            -385 654 vlineto
            52 437 rlineto
            -79 hlineto
            -66 -156 return
          </CharString>
          <CharString index="319">
            1153 rmoveto
            209 390 rlineto
            12 -318 vlineto
            -18 -402 rlineto
            -229 26 rmoveto
            102 callsubr
            -90 -74 -64 -90 -90 74 -65 90 hvcurveto
            715 hmoveto
            102 callsubr
            91 callsubr
            endchar
          </CharString>
          <CharString index="320">
            -487 rmoveto
            102 104 37 55 46 hvcurveto
            95 vlineto
            -13 -18 -33 -10 -37 hhcurveto
            -59 -49 35 72 81 52 74 142 104 hvcurveto
            -116 -1 rlineto
            -274 -125 -91 -114 -107 vvcurveto
            -118 99 -65 132 vhcurveto
            endchar
          </CharString>
          <CharString index="321">
            -238 -126 -156 -173 -25 2 -24 4 -19 hvcurveto
            114 3 hlineto
            98 99 69 145 143 101 -70 -97 vhcurveto
            -3 114 vlineto
            4 19 2 24 25 vvcurveto
            173 -126 156 -238 vhcurveto
            return
          </CharString>
          <CharString index="322">
            414 vlineto
            150 -2 94 -2 28 -38 30 -162 rlinecurve
            89 522 -89 hlineto
            -31 -161 -27 -39 -94 -2 rrcurveto
            -150 -2 0 557 163 -7 246 -11 62 -50 57 -235 rlinecurve
            94 hlineto
            endchar
          </CharString>
          <CharString index="323">
            rmoveto
            222 117 140 156 23 -2 21 -3 18 hvcurveto
            -106 -3 hlineto
            -89 -93 -62 -135 -133 -94 63 88 vhcurveto
            3 -106 vlineto
            -3 -18 -2 -21 -23 vvcurveto
            -156 117 -140 221 vhcurveto
            endchar
          </CharString>
          <CharString index="324">
            -12 hvcurveto
            -75 vlineto
            3 16 24 1 19 hhcurveto
            107 77 -59 -97 -87 -65 -52 -88 -32 -28 8 12 -23 hvcurveto
            31 16 21 31 36 vvcurveto
            54 -43 39 -55 -59 -41 -43 -54 -106 116 -84 178 vhcurveto
            return
          </CharString>
          <CharString index="325">
            471 1467 rmoveto
            -209 -42 -187 -148 -220 vvcurveto
            -151 90 -103 132 139 83 113 142 vhcurveto
            -105 4 -69 59 91 vvcurveto
            86 67 56 88 21 vhcurveto
            return
          </CharString>
          <CharString index="326">
            -6 rrcurveto
            89 vlineto
            318 38 248 209 317 vvcurveto
            324 -273 270 -491 -492 -273 -267 -341 -306 250 -217 317 -27 vhcurveto
            -89 vlineto
            return
          </CharString>
          <CharString index="327">
            549 -93 rmoveto
            210 43 186 147 221 vvcurveto
            151 -90 102 -132 -139 -83 -113 -141 vhcurveto
            105 -5 70 -59 -90 vvcurveto
            -86 -68 -56 -88 -21 vhcurveto
            endchar
          </CharString>
          <CharString index="328">
            82 49 84 vvcurveto
            83 -94 53 -130 vhcurveto
            -642 -497 41 callsubr
            50 callsubr
            return
          </CharString>
          <CharString index="329">
            190 159 87 173 105 -78 86 -133 111 callgsubr
            -163 -176 -118 -95 -134 -46 vhcurveto
            59 -33 82 callgsubr
            217 callsubr
            return
          </CharString>
          <CharString index="330">
            -332 -231 -216 -328 vhcurveto
            397 119 rmoveto
            191 61 106 106 94 47 -95 -160 -20 0 -14 -1 -12 vhcurveto
            -307 -1 rlineto
            1 0 2 2 vvcurveto
            return
          </CharString>
          <CharString index="331">
            -399 rlineto
            94 hlineto
            48 229 69 41 209 12 23 1 rcurveline
            -1082 vlineto
            -98 -23 -30 -137 -19 vhcurveto
            -99 733 99 vlineto
            -129 19 -20 22 92 vvcurveto
            return
          </CharString>
          <CharString index="332">
            88 133 132 -138 89 -193 -192 -138 -90 -131 vhcurveto
            235 hmoveto
            73 41 52 54 55 41 -51 -74 -75 -41 -50 -55 -54 -41 50 75 vhcurveto
            return
          </CharString>
          <CharString index="333">
            rmoveto
            83 68 61 84 84 -68 60 -83 -83 -68 -60 -84 -84 67 -61 84 hvcurveto
            376 hmoveto
            84 67 61 84 84 -67 60 -84 -83 -67 -60 -84 -84 67 -61 83 hvcurveto
            return
          </CharString>
          <CharString index="334">
            314 rmoveto
            161 131 132 160 161 -131 131 -161 -160 -131 -131 -161 -160 131 -132 160 hvcurveto
            endchar
          </CharString>
          <CharString index="335">
            15 18 -29 hvcurveto
            -1 -95 rlineto
            -41 48 85 -27 98 hhcurveto
            endchar
          </CharString>
          <CharString index="336">
            12 151 61 79 97 rrcurveto
            98 vlineto
            -50 -61 -110 -26 return
          </CharString>
          <CharString index="337">
            2 hvcurveto
            115 hlineto
            45 1 26 21 49 hhcurveto
            29 31 -7 return
          </CharString>
          <CharString index="338">
            -2 -24 -25 vvcurveto
            -173 126 -155 238 vhcurveto
            endchar
          </CharString>
          <CharString index="339">
            -14 vhcurveto
            -99 663 99 vlineto
            -121 16 -21 21 81 vvcurveto
            return
          </CharString>
          <CharString index="340">
            hvcurveto
            181 hlineto
            163 1 53 66 88 146 182 return
          </CharString>
          <CharString index="341">
            hvcurveto
            113 hlineto
            90 2 22 34 45 hhcurveto
            30 24 -13 -24 return
          </CharString>
          <CharString index="342">
            vvcurveto
            -3 500 215 -650 158 0 69 261 return
          </CharString>
          <CharString index="343">
            rmoveto
            107 86 76 106 106 -86 76 -107 -106 -87 -76 -106 -106 return
          </CharString>
          <CharString index="344">
            vlineto
            -1 163 rmoveto
            -235 hlineto
            236 341 rlineto
            endchar
          </CharString>
        <CharString name=".notdef">
          2048 88 -494 rmoveto
          5 callgsubr
          5 callgsubr
          235 2444 -235 hlineto
          endchar
        </CharString>
        <CharString name=".null">
          0 endchar
        </CharString>
        <CharString name="A">
          1545 1350 309 -100 callsubr
        </CharString>
        <CharString name="AE">
          1991 1880 1444 158 callsubr
        </CharString>
        <CharString name="AEacute">
          1991 1214 -29 callsubr
          790 -99 158 callsubr
        </CharString>
        <CharString name="AEmacron">
          1991 925 -53 callsubr
          955 -322 158 callsubr
        </CharString>
        <CharString name="Aacute">
          1545 734 -82 callsubr
          97 callsubr
          739 -1234 -100 callsubr
        </CharString>
        <CharString name="Abreve">
          1545 770 -15 callsubr
          38 callsubr
          -128 -93 32 callsubr
          580 -1256 -100 callsubr
        </CharString>
        <CharString name="Abreveacute">
          1545 1120 147 callsubr
          -79 vlineto
          350 -268 -32 callsubr
          580 -1221 -100 callsubr
        </CharString>
        <CharString name="Abrevecyrillic">
          1545 770 94 callgsubr
          -84 -80 183 callsubr
          -42 hvcurveto
          37 23 24 41 47 vvcurveto
          74 -57 60 -81 -84 -55 -21 callgsubr
          580 -1247 -100 callsubr
        </CharString>
        <CharString name="Abrevedotbelow">
          1545 770 -15 callsubr
          38 callsubr
          -128 -93 32 callsubr
          580 -1256 rmoveto
          -20 callsubr
          65 callsubr
          -119 -717 -68 callsubr
        </CharString>
        <CharString name="Abrevegrave">
          1545 420 75 callsubr
          350 -527 -32 callsubr
          580 -1221 -100 callsubr
        </CharString>
        <CharString name="Abrevehookabove">
          1545 759 2047 rmoveto
          -92 30 callgsubr
          87 -49 rlineto
          158 26 86 49 84 vvcurveto
          83 -98 53 -135 vhcurveto
          11 -517 -32 callsubr
          580 -1221 -100 callsubr
        </CharString>
        <CharString name="Abrevetilde">
          1545 911 1826 rmoveto
          131 79 76 134 -1 hvcurveto
          -116 hlineto
          -45 -27 -21 -48 -29 -31 7 12 -39 vhcurveto
          7 callgsubr
          51 -13 57 hhcurveto
          -141 -296 -32 callsubr
          580 -1221 -100 callsubr
        </CharString>
        <CharString name="Acaron">
          1545 1017 -75 callsubr
          28 callsubr
          211 -1554 -100 callsubr
        </CharString>
        <CharString name="Acircumflex">
          1545 558 -61 callsubr
          -17 callsubr
          913 -1234 -100 callsubr
        </CharString>
        <CharString name="Acircumflexacute">
          1545 1120 1865 33 callsubr
          1 -282 41 callsubr
          50 callsubr
          929 -1270 -100 callsubr
        </CharString>
        <CharString name="Acircumflexdotbelow">
          1545 558 -61 callsubr
          -17 callsubr
          913 -1234 rmoveto
          -20 callsubr
          65 callsubr
          -119 -717 -68 callsubr
        </CharString>
        <CharString name="Acircumflexgrave">
          1545 420 127 callsubr
          349 -84 0 83 50 callsubr
          929 -1270 -100 callsubr
        </CharString>
        <CharString name="Acircumflexhookabove">
          1545 1063 -9 callgsubr
          221 callsubr
          929 -1270 -100 callsubr
        </CharString>
        <CharString name="Acircumflextilde">
          1545 911 41 callgsubr
          -31 7 11 -39 vhcurveto
          -41 12 rlineto
          15 -101 callgsubr
          89 callsubr
          70 callgsubr
          50 callsubr
          929 -1270 -100 callsubr
        </CharString>
        <CharString name="Acyrillic">
          1545 1350 309 -100 callsubr
        </CharString>
        <CharString name="Adblgrave">
          1545 611 1856 rmoveto
          -345 -10 hlineto
          332 -303 rlineto
          140 hlineto
          292 313 rmoveto
          -311 -22 callgsubr
          306 -1234 -100 callsubr
        </CharString>
        <CharString name="Adieresis">
          1545 582 1556 rmoveto
          83 68 60 84 85 -68 60 -83 -62 callsubr
          -40 callsubr
          -66 callsubr
          392 -1247 -100 callsubr
        </CharString>
        <CharString name="Adieresismacron">
          1545 419 1858 -69 callgsubr
          175 -448 rmoveto
          -58 callsubr
          76 callsubr
          -68 -56 -43 -62 -61 56 -44 68 hvcurveto
          405 -1240 -100 callsubr
        </CharString>
        <CharString name="Adotaccent">
          1545 770 -42 callsubr
          -60 callsubr
          580 -1236 -100 callsubr
        </CharString>
        <CharString name="Adotbelow">
          1545 1350 309 rmoveto
          -20 callsubr
          65 callsubr
          -119 -717 -68 callsubr
        </CharString>
        <CharString name="Adotmacron">
          1545 419 1830 -69 callgsubr
          351 -431 rmoveto
          -75 callgsubr
          -82 callgsubr
          580 -1229 -100 callsubr
        </CharString>
        <CharString name="Agrave">
          1545 840 69 callsubr
          912 -1537 -100 callsubr
        </CharString>
        <CharString name="Ahookabove">
          1545 811 74 callsubr
          26 49 14 45 callsubr
          68 callsubr
          539 -1592 -100 callsubr
        </CharString>
        <CharString name="Ainvertedbreve">
          1545 770 118 callsubr
          580 -1599 -100 callsubr
        </CharString>
        <CharString name="Alphagreek">
          1545 1350 309 -100 callsubr
        </CharString>
        <CharString name="Alphatonosgreek">
          1545 1350 309 rmoveto
          -20 callsubr
          761 99 vlineto
          -115 18 -30 30 -58 162 rrcurveto
          -1138 733 153 callsubr
          366 -458 rmoveto
          185 556 185 -556 rlineto
          endchar
        </CharString>
        <CharString name="Amacron">
          1545 446 -53 callsubr
          904 -1457 -100 callsubr
        </CharString>
        <CharString name="Aogonek">
          1545 1183 98 callgsubr
          -26 -10 -30 hhcurveto
          -66 -65 77 112 42 9 37 14 26 hvcurveto
          299 99 hlineto
          -115 18 -30 30 -58 162 rrcurveto
          -20 callsubr
          337 vlineto
          -103 -62 -79 -107 -112 vvcurveto
          -125 101 -81 135 vhcurveto
          -740 1071 rmoveto
          185 556 185 -556 rlineto
          endchar
        </CharString>
        <CharString name="Aring">
          1545 472 3 callgsubr
          36 46 50 49 37 -46 -66 -66 -37 -44 -49 -50 -36 44 66 vhcurveto
          666 -1437 -100 callsubr
        </CharString>
        <CharString name="Aringacute">
          1545 1120 1867 rmoveto
          173 vlineto
          -700 -180 rlineto
          -79 vlineto
          210 callsubr
          563 -1277 -100 callsubr
        </CharString>
        <CharString name="Aringbelow">
          1545 1350 309 rmoveto
          -20 callsubr
          65 callsubr
          -450 -872 rmoveto
          -121 139 54 callgsubr
          -139 16 callgsubr
        </CharString>
        <CharString name="Atilde">
          1545 907 -8 callsubr
          151 callsubr
          -102 callgsubr
          -19 callgsubr
          38 hvcurveto
          30 -20 rlineto
          -39 60 50 -21 65 hhcurveto
          443 -1233 -100 callsubr
        </CharString>
        <CharString name="B">
          1555 1482 428 113 callsubr
        </CharString>
        <CharString name="Bdotaccent">
          1555 765 30 callsubr
          -91 -60 callsubr
          717 -1117 113 callsubr
        </CharString>
        <CharString name="Bdotbelow">
          209 callsubr
          -270 -544 -68 callsubr
        </CharString>
        <CharString name="Becyrillic">
          1509 1444 423 rmoveto
          267 -235 150 -385 vhcurveto
          -197 488 hlineto
          207 -6 254 -7 62 -43 58 -226 rlinecurve
          94 hlineto
          -10 398 rlineto
          -1237 -99 hlineto
          128 -20 20 -23 -89 vvcurveto
          -982 vlineto
          -89 -20 -23 -128 -20 vhcurveto
          -99 774 vlineto
          384 231 158 265 hvcurveto
          -445 -4 rmoveto
          -181 -99 -112 -194 -7 vhcurveto
          -79 -3 0 604 79 -3 rlineto
          188 -7 105 -113 -178 vvcurveto
          endchar
        </CharString>
        <CharString name="Betagreek">
          1555 1482 428 113 callsubr
        </CharString>
        <CharString name="Blinebelow">
          209 callsubr
          -605 -789 -80 callsubr
        </CharString>
        <CharString name="C">
          1473 84 718 -16 callsubr
          -31 callsubr
        </CharString>
        <CharString name="Cacute">
          1473 853 -82 callsubr
          0 callsubr
          -645 -825 -16 callsubr
          -31 callsubr
        </CharString>
        <CharString name="Ccaron">
          1473 1136 -75 callsubr
          -44 callsubr
          -1173 -1145 -16 callsubr
          -31 callsubr
        </CharString>
        <CharString name="Ccedilla">
          1473 84 718 rmoveto
          -433 312 -277 423 -34 vhcurveto
          -105 -119 155 callsubr
          138 callsubr
          140 callsubr
          57 59 rlineto
          184 5 174 43 87 61 9 406 rcurveline
          -40 callgsubr
          -31 callsubr
        </CharString>
        <CharString name="Ccedillaacute">
          1473 853 -82 callsubr
          0 callsubr
          -645 -825 rmoveto
          -433 312 -277 423 -34 vhcurveto
          -105 -119 155 callsubr
          138 callsubr
          140 callsubr
          57 59 rlineto
          184 5 174 43 87 61 9 406 rcurveline
          -40 callgsubr
          -31 callsubr
        </CharString>
        <CharString name="Ccircumflex">
          1473 676 120 callsubr
          -471 -825 -16 callsubr
          -31 callsubr
        </CharString>
        <CharString name="Cdotaccent">
          1473 888 30 callsubr
          92 callsubr
          -804 -827 -16 callsubr
          -31 callsubr
        </CharString>
        <CharString name="Checyrillic">
          1713 1509 -52 callgsubr
          -709 -99 vlineto
          117 -17 20 -21 -87 vvcurveto
          -474 vlineto
          -24 -55 -80 -16 -87 hhcurveto
          -175 -92 91 204 hvcurveto
          219 vlineto
          87 19 21 117 17 vhcurveto
          99 -697 -99 vlineto
          118 -17 19 -21 -87 vvcurveto
          -212 vlineto
          -314 209 -149 316 165 140 33 42 83 vhcurveto
          -377 vlineto
          -97 -24 -27 -143 -20 vhcurveto
          -99 739 99 vlineto
          -77 callgsubr
        </CharString>
        <CharString name="Chigreek">
          1504 288 322 55 callsubr
        </CharString>
        <CharString name="D">
          1689 34 callsubr
          endchar
        </CharString>
        <CharString name="Dbar">
          1689 55 684 rmoveto
          149 -453 hlineto
          -89 -20 -23 -129 -20 vhcurveto
          -99 713 vlineto
          471 378 290 454 453 -346 247 -525 hvcurveto
          -691 -78 callsubr
          -417 -149 vlineto
          1095 -75 146 callsubr
          rlineto
          571 258 112 -258 535 vlineto
          72 -3 rlineto
          281 -9 169 -242 -356 vvcurveto
          endchar
        </CharString>
        <CharString name="Dcaron">
          1689 1050 -75 callsubr
          28 callsubr
          445 -1119 112 callsubr
          endchar
        </CharString>
        <CharString name="Dcircumflexbelow">
          1689 34 callsubr
          -640 -1190 rmoveto
          230 170 230 -170 116 141 callsubr
        </CharString>
        <CharString name="Dcommaaccent">
          1689 34 callsubr
          -435 -1202 -72 callsubr
          79 callsubr
          81 callsubr
          152 callsubr
          43 82 -28 98 hhcurveto
          endchar
        </CharString>
        <CharString name="Ddotaccent">
          1689 803 142 callsubr
          814 -801 112 callsubr
          endchar
        </CharString>
        <CharString name="Ddotbelow">
          1689 34 callsubr
          -410 -854 27 callsubr
        </CharString>
        <CharString name="Decyrillic">
          1571 1533 121 rmoveto
          -190 1077 hlineto
          99 23 29 137 19 vhcurveto
          99 -1312 -99 vlineto
          150 -17 34 -30 -5 -126 rrcurveto
          -6 -166 -15 -413 -44 -301 -137 -171 rlinecurve
          -146 hlineto
          -9 -458 rlineto
          98 hlineto
          278 63 87 59 259 hhcurveto
          513 hlineto
          270 78 -66 -271 63 hvcurveto
          97 hlineto
          -621 458 rmoveto
          -586 hlineto
          115 182 40 281 14 422 12 317 rcurveline
          405 hlineto
          endchar
        </CharString>
        <CharString name="Deltagreek">
          1424 35 hmoveto
          1354 215 hlineto
          -507 1230 -339 0 -508 -1230 rlineto
          175 57 rmoveto
          363 900 350 -900 rlineto
          endchar
        </CharString>
        <CharString name="Djecyrillic">
          1839 -41 callsubr
          224 callsubr
          404 vlineto
          23 39 61 17 65 hhcurveto
          170 101 -118 -249 1 hvcurveto
          -267 -94 -210 -202 -138 vhcurveto
          46 -81 rlineto
          393 128 280 254 352 vvcurveto
          315 -216 178 -306 -148 -125 -37 -41 -65 vhcurveto
          566 93 callgsubr
        </CharString>
        <CharString name="Dlinebelow">
          1689 34 callsubr
          -744 -1099 -80 callsubr
        </CharString>
        <CharString name="Dzecyrillic">
          1344 625 -29 105 callsubr
          endchar
        </CharString>
        <CharString name="Dzhecyrillic">
          1753 1549 1213 rmoveto
          89 21 23 128 20 vhcurveto
          99 96 callsubr
          -21 -85 vvcurveto
          -1099 -497 1099 vlineto
          85 19 21 118 19 vhcurveto
          99 -48 callsubr
          -107 callsubr
          575 vlineto
          121 26 -34 -286 51 hvcurveto
          97 hlineto
          286 51 26 34 120 hhcurveto
          576 99 hlineto
          -77 callgsubr
        </CharString>
        <CharString name="E">
          1375 1261 -1 callsubr
          -103 callsubr
          -107 callsubr
          -92 callsubr
        </CharString>
        <CharString name="Eacute">
          1375 694 -82 callsubr
          -50 callsubr
          690 -99 -87 callsubr
          -103 callsubr
          -107 callsubr
          -92 callsubr
        </CharString>
        <CharString name="Ebreve">
          1375 730 -15 callsubr
          38 callsubr
          -129 -92 32 callsubr
          531 -121 -87 callsubr
          -103 callsubr
          -107 callsubr
          -92 callsubr
        </CharString>
        <CharString name="Ecaron">
          1375 977 -75 callsubr
          28 callsubr
          162 -419 -87 callsubr
          -103 callsubr
          -107 callsubr
          -92 callsubr
        </CharString>
        <CharString name="Ecedilla">
          1375 691 -481 -80 callgsubr
          80 85 rlineto
          3 514 181 callsubr
          95 hlineto
          -11 416 rlineto
          -1206 -78 callsubr
          -107 callsubr
          618 vlineto
          -128 -145 10 callsubr
          35 callsubr
          -51 -45 callgsubr
          endchar
        </CharString>
        <CharString name="Ecedillabreve">
          1375 730 -15 callsubr
          38 callsubr
          -129 -92 32 callsubr
          -39 -2046 -80 callgsubr
          80 85 rlineto
          3 514 181 callsubr
          95 hlineto
          -11 416 rlineto
          -1206 -78 callsubr
          -107 callsubr
          618 vlineto
          -128 -145 10 callsubr
          35 callsubr
          -51 -45 callgsubr
          endchar
        </CharString>
        <CharString name="Ecircumflex">
          1375 518 -61 callsubr
          104 callgsubr
          -216 -312 rlineto
          865 -99 -87 callsubr
          -103 callsubr
          -107 callsubr
          -92 callsubr
        </CharString>
        <CharString name="Ecircumflexacute">
          1375 1080 1865 33 callsubr
          1 -282 41 callsubr
          -317 167 -65 0 -316 -167 rlineto
          880 -135 -87 callsubr
          -103 callsubr
          -107 callsubr
          -92 callsubr
        </CharString>
        <CharString name="Ecircumflexbelow">
          1375 1261 -1 callsubr
          -103 callsubr
          -107 callsubr
          42 callsubr
          95 hlineto
          -778 -1497 -3 callsubr
          84 callsubr
          -221 -362 rlineto
          endchar
        </CharString>
        <CharString name="Ecircumflexdotbelow">
          1375 518 -61 callsubr
          104 callgsubr
          -216 -312 rlineto
          865 -99 -87 callsubr
          -103 callsubr
          -107 callsubr
          42 callsubr
          95 hlineto
          -547 -1161 -68 callsubr
        </CharString>
        <CharString name="Ecircumflexgrave">
          1375 380 127 callsubr
          349 -84 0 83 -317 167 -65 0 -316 -167 rlineto
          880 -135 -87 callsubr
          -103 callsubr
          -107 callsubr
          -92 callsubr
        </CharString>
        <CharString name="Ecircumflexhookabove">
          1375 1023 -9 callgsubr
          81 49 84 vvcurveto
          83 -93 53 -130 vhcurveto
          -642 -497 41 callsubr
          -317 167 -65 0 -316 -167 rlineto
          880 -135 -87 callsubr
          -103 callsubr
          -107 callsubr
          -92 callsubr
        </CharString>
        <CharString name="Ecircumflextilde">
          1375 871 41 callgsubr
          -32 7 11 -38 vhcurveto
          -41 12 rlineto
          15 -101 callgsubr
          1 hvcurveto
          116 hlineto
          45 1 26 21 49 hhcurveto
          29 31 -7 -12 39 hvcurveto
          41 70 callgsubr
          -317 167 -65 0 -316 -167 rlineto
          880 -135 -87 callsubr
          -103 callsubr
          -107 callsubr
          -92 callsubr
        </CharString>
        <CharString name="Ecyrillic">
          1492 84 718 -16 callsubr
          -230 -142 250 319 -16 hvcurveto
          538 -11 0 145 -538 -10 rlineto
          327 16 139 214 232 hhcurveto
          -7 callgsubr
        </CharString>
        <CharString name="Edblgrave">
          1375 571 1856 rmoveto
          -345 -10 hlineto
          44 callgsubr
          257 -99 -87 callsubr
          -103 callsubr
          -107 callsubr
          -92 callsubr
        </CharString>
        <CharString name="Edieresis">
          1375 542 1556 rmoveto
          103 callsubr
          -62 callsubr
          -40 callsubr
          -66 callsubr
          343 -112 -87 callsubr
          -103 callsubr
          -107 callsubr
          -92 callsubr
        </CharString>
        <CharString name="Edotaccent">
          1375 730 -42 callsubr
          -60 callsubr
          531 -101 -87 callsubr
          -103 callsubr
          -107 callsubr
          -92 callsubr
        </CharString>
        <CharString name="Edotbelow">
          1375 1261 -1 callsubr
          -103 callsubr
          -107 callsubr
          42 callsubr
          95 hlineto
          -547 -1161 -68 callsubr
        </CharString>
        <CharString name="Efcyrillic">
          2102 59 717 rmoveto
          -283 248 -185 548 -14 vhcurveto
          -18 vlineto
          -99 -23 -29 -136 -20 vhcurveto
          -98 711 98 vlineto
          -136 20 -23 29 99 vvcurveto
          18 vlineto
          551 13 244 182 293 vvcurveto
          281 -234 191 -561 13 vhcurveto
          19 vlineto
          99 23 29 136 20 vhcurveto
          98 -711 -98 vlineto
          136 -20 23 -29 -99 vvcurveto
          -19 vlineto
          -565 -12 -231 -187 -292 vvcurveto
          1539 3 rmoveto
          -191 -110 -152 -240 -23 vhcurveto
          736 vlineto
          255 -21 95 -154 -195 vvcurveto
          -1093 4 rmoveto
          191 105 153 245 22 vhcurveto
          -736 vlineto
          -251 21 -99 154 195 vvcurveto
          endchar
        </CharString>
        <CharString name="Egrave">
          1375 800 69 callsubr
          863 -402 -87 callsubr
          -103 callsubr
          -107 callsubr
          -92 callsubr
        </CharString>
        <CharString name="Ehookabove">
          1375 771 74 callsubr
          26 49 14 45 callsubr
          68 callsubr
          490 -457 -87 callsubr
          -103 callsubr
          -107 callsubr
          -92 callsubr
        </CharString>
        <CharString name="Einvertedbreve">
          1375 730 118 callsubr
          531 -464 -87 callsubr
          -103 callsubr
          -107 callsubr
          -92 callsubr
        </CharString>
        <CharString name="Elcyrillic">
          1595 33 callgsubr
          401 -1092 hlineto
          -91 -21 -22 -126 -19 vhcurveto
          -99 719 99 vlineto
          -127 19 -21 22 91 vvcurveto
          -71 callsubr
          127 19 vhcurveto
          99 -1296 -99 vlineto
          156 -17 27 -39 6 callgsubr
          endchar
        </CharString>
        <CharString name="Emacron">
          1375 406 -53 callsubr
          855 -322 -87 callsubr
          -103 callsubr
          -107 callsubr
          -92 callsubr
        </CharString>
        <CharString name="Emacronacute">
          1375 1080 147 callsubr
          -79 vlineto
          -1 -214 rmoveto
          701 140 -701 hlineto
          882 -280 -87 callsubr
          -103 callsubr
          -107 callsubr
          -92 callsubr
        </CharString>
        <CharString name="Emacrongrave">
          1375 380 75 callsubr
          -1 -473 rmoveto
          701 140 -701 hlineto
          882 -280 -87 callsubr
          -103 callsubr
          -107 callsubr
          -92 callsubr
        </CharString>
        <CharString name="Emcyrillic">
          1954 691 1444 57 callsubr
        </CharString>
        <CharString name="Encyrillic">
          14 callsubr
          -71 callsubr
          -73 callsubr
          -55 callsubr
          -47 callsubr
        </CharString>
        <CharString name="Eogonek">
          1375 1069 98 callgsubr
          -25 -10 -31 hhcurveto
          -66 -64 77 112 42 8 37 14 26 hvcurveto
          167 hlineto
          11 460 rlineto
          -94 hlineto
          -6 callgsubr
          -28 -39 -94 47 callgsubr
          95 hlineto
          -11 416 rlineto
          -1206 -78 callsubr
          -107 callsubr
          960 vlineto
          -102 -62 -80 -107 -112 vvcurveto
          -125 101 -81 135 vhcurveto
          endchar
        </CharString>
        <CharString name="Epsilongreek">
          1375 1261 -1 callsubr
          -103 callsubr
          -107 callsubr
          -92 callsubr
        </CharString>
        <CharString name="Epsilontonosgreek">
          1778 1664 -1 callsubr
          128 -20 21 -23 -89 vvcurveto
          47 callsubr
          42 callsubr
          94 hlineto
          -1535 14 -34 callsubr
          98 callsubr
        </CharString>
        <CharString name="Ercyrillic">
          1527 1454 1010 59 callsubr
        </CharString>
        <CharString name="Ereversedcyrillic">
          1495 112 77 rmoveto
          -62 95 195 -44 188 hhcurveto
          475 346 297 465 462 -335 278 -485 -208 -175 -42 -60 -91 hvcurveto
          -10 -358 rlineto
          94 hlineto
          229 52 122 98 173 hhcurveto
          228 147 -207 -335 19 hvcurveto
          -539 10 0 -145 540 9 rlineto
          -329 -13 -149 -239 -234 hhcurveto
          -166 -129 86 245 -56 hvcurveto
          -93 hlineto
          endchar
        </CharString>
        <CharString name="Escyrillic">
          1473 84 718 -16 callsubr
          -31 callsubr
        </CharString>
        <CharString name="Etagreek">
          14 callsubr
          -71 callsubr
          -73 callsubr
          -55 callsubr
          -47 callsubr
        </CharString>
        <CharString name="Etatonosgreek">
          2167 1031 224 rmoveto
          452 508 -452 vlineto
          -87 -19 134 callsubr
          -71 callsubr
          -73 callsubr
          19 -21 -87 vvcurveto
          -423 -508 38 callgsubr
          -52 callsubr
          -892 818 -34 callsubr
          98 callsubr
        </CharString>
        <CharString name="Etilde">
          1375 867 -8 callsubr
          151 callsubr
          -102 callgsubr
          -90 -92 -237 6 234 callsubr
          -26 callgsubr
          394 -98 -87 callsubr
          -103 callsubr
          -107 callsubr
          -92 callsubr
        </CharString>
        <CharString name="Etildebelow">
          1375 1261 -1 callsubr
          -103 callsubr
          -107 callsubr
          42 callsubr
          95 hlineto
          -414 -1472 rmoveto
          119 87 90 228 -6 hvcurveto
          -106 hlineto
          -88 -2 -22 145 callsubr
          29 callgsubr
        </CharString>
        <CharString name="F">
          1292 1240 1444 rmoveto
          -1185 -78 callsubr
          -107 callsubr
          732 39 callsubr
          215 callsubr
        </CharString>
        <CharString name="Fdotaccent">
          1292 720 30 callsubr
          -91 -60 callsubr
          520 -101 rmoveto
          -1185 -78 callsubr
          -107 callsubr
          732 39 callsubr
          215 callsubr
        </CharString>
        <CharString name="G">
          1620 84 715 -21 callsubr
        </CharString>
        <CharString name="Gacute">
          1620 851 -29 callsubr
          -643 -828 -21 callsubr
        </CharString>
        <CharString name="Gammagreek">
          1278 1224 1444 rmoveto
          -1169 -78 callsubr
          -107 callsubr
          -106 callgsubr
          1084 vlineto
          162 -5 232 -9 63 -44 55 -226 rlinecurve
          94 hlineto
          endchar
        </CharString>
        <CharString name="Gbreve">
          1620 886 -15 callsubr
          24 callgsubr
          -802 -850 -21 callsubr
        </CharString>
        <CharString name="Gcaron">
          1620 1134 -75 callsubr
          -44 callsubr
          -1171 -1148 -21 callsubr
        </CharString>
        <CharString name="Gcircumflex">
          1620 674 -61 callsubr
          -17 callsubr
          -469 -828 -21 callsubr
        </CharString>
        <CharString name="Gcommaaccent">
          1620 84 715 rmoveto
          -449 341 -295 471 223 218 50 81 123 vhcurveto
          399 vlineto
          84 18 23 117 15 vhcurveto
          98 -649 -98 vlineto
          129 -15 18 -23 -83 vvcurveto
          -356 vlineto
          -25 -31 -58 -16 -69 hhcurveto
          -242 -142 280 349 362 140 243 249 184 124 -134 -233 55 hvcurveto
          94 hlineto
          -9 404 rlineto
          62 80 callgsubr
          773 -1196 -72 callsubr
          79 callsubr
          81 callsubr
          152 callsubr
          44 81 -28 98 hhcurveto
          endchar
        </CharString>
        <CharString name="Gdotaccent">
          1620 886 -42 callsubr
          -60 callsubr
          -802 -830 -21 callsubr
        </CharString>
        <CharString name="Geacutecyrillic">
          1278 619 -82 callsubr
          -50 callsubr
          728 -99 rmoveto
          -1169 -78 callsubr
          -107 callsubr
          -106 callgsubr
          57 callgsubr
        </CharString>
        <CharString name="Gecyrillic">
          1278 1224 1444 rmoveto
          -1169 -78 callsubr
          -107 callsubr
          -106 callgsubr
          57 callgsubr
        </CharString>
        <CharString name="Germandbls">
          1668 627 hmoveto
          1331 vlineto
          165 -7 rlineto
          245 -9 101 -102 -134 vvcurveto
          -123 -83 -73 -129 -15 vhcurveto
          -261 vlineto
          202 -48 111 -119 -155 vvcurveto
          -113 -61 -66 -96 -121 -90 125 194 -31 vhcurveto
          -94 -366 hlineto
          -47 67 129 -39 160 hhcurveto
          245 248 133 287 230 -137 184 -210 67 hvcurveto
          174 18 116 96 137 vvcurveto
          190 -188 129 -434 vhcurveto
          -861 -99 hlineto
          128 -18 21 -23 -88 vvcurveto
          -988 vlineto
          -88 -21 -23 -128 -18 vhcurveto
          -99 vlineto
          endchar
        </CharString>
        <CharString name="Geupturncyrillic">
          1249 1196 1323 rmoveto
          9 446 rlineto
          -98 hlineto
          -280 -85 -51 -45 -228 hhcurveto
          -688 -78 callsubr
          -107 callsubr
          -106 callgsubr
          1077 vlineto
          endchar
        </CharString>
        <CharString name="Gmacron">
          1620 562 -53 callsubr
          -478 -1051 -21 callsubr
        </CharString>
        <CharString name="H">
          14 callsubr
          -71 callsubr
          -73 callsubr
          -55 callsubr
          -47 callsubr
        </CharString>
        <CharString name="Hacyrillic">
          1504 288 322 55 callsubr
        </CharString>
        <CharString name="Hardsigncyrillic">
          1748 1687 453 rmoveto
          277 -235 161 -380 vhcurveto
          -201 307 hlineto
          1 99 22 29 137 19 rrcurveto
          99 -979 vlineto
          -10 -398 rlineto
          94 hlineto
          48 229 62 42 197 10 rrcurveto
          5 -1090 hlineto
          -93 -22 -26 -133 -19 vhcurveto
          -99 786 vlineto
          388 220 184 269 hvcurveto
          -445 -5 rmoveto
          -194 -89 -127 -199 -8 vhcurveto
          -83 -3 0 655 75 -1 rlineto
          182 -2 114 -118 -202 vvcurveto
          endchar
        </CharString>
        <CharString name="Hbar">
          14 callsubr
          780 149 112 -149 90 vlineto
          92 21 21 -73 callsubr
          20 -21 -87 vvcurveto
          -97 -509 97 vlineto
          -37 callsubr
          -48 callsubr
          -90 -149 -112 149 -780 94 callsubr
          -52 callsubr
          573 vmoveto
          214 509 -214 vlineto
          endchar
        </CharString>
        <CharString name="Hbrevebelow">
          14 callsubr
          -71 callsubr
          -73 callsubr
          -55 callsubr
          -52 callsubr
          254 -691 216 callsubr
        </CharString>
        <CharString name="Hcaron">
          1764 1130 1862 rmoveto
          -230 -140 -44 callsubr
          -623 -1638 rmoveto
          102 callgsubr
          -71 callsubr
          -73 callsubr
          -55 callsubr
          -47 callsubr
        </CharString>
        <CharString name="Hcedilla">
          1764 370 -481 71 callgsubr
          -4 0 -4 hhcurveto
          82 88 rlineto
          293 99 hlineto
          -118 19 -19 21 85 vvcurveto
          102 callgsubr
          -71 callsubr
          -73 callsubr
          -55 callsubr
          295 vlineto
          -126 -145 10 callsubr
          35 callsubr
          -51 -45 callgsubr
          endchar
        </CharString>
        <CharString name="Hcircumflex">
          1764 670 1542 rmoveto
          231 141 229 -141 123 0 -215 313 -274 0 -215 -313 rlineto
          79 -1318 rmoveto
          102 callgsubr
          -71 callsubr
          -73 callsubr
          -55 callsubr
          -47 callsubr
        </CharString>
        <CharString name="Hdieresis">
          1764 694 1555 rmoveto
          84 67 60 85 84 -67 60 -84 -83 -67 -60 -84 -85 67 -60 83 hvcurveto
          377 hmoveto
          83 67 60 85 84 -67 60 -83 -83 -68 -60 -84 -85 67 -60 84 hvcurveto
          -443 -1331 rmoveto
          102 callgsubr
          -71 callsubr
          -73 callsubr
          -55 callsubr
          -47 callsubr
        </CharString>
        <CharString name="Hdotaccent">
          1764 882 1544 rmoveto
          92 73 65 90 90 -73 64 -92 91 callsubr
          -254 -1320 rmoveto
          102 callgsubr
          -71 callsubr
          -73 callsubr
          -55 callsubr
          -47 callsubr
        </CharString>
        <CharString name="Hdotbelow">
          14 callsubr
          -71 callsubr
          -73 callsubr
          -55 callsubr
          -52 callsubr
          254 -357 131 callsubr
        </CharString>
        <CharString name="I">
          832 628 7 callsubr
          -93 callsubr
          -107 callsubr
          -81 callsubr
        </CharString>
        <CharString name="IAcyrillic">
          1538 116 1010 rmoveto
          -182 121 -113 160 -44 vhcurveto
          -186 -335 -100 -177 -32 -42 -64 -23 rlinecurve
          -94 438 vlineto
          329 615 rlineto
          123 -391 hlineto
          -84 -18 -21 -118 -20 vhcurveto
          -99 709 99 vlineto
          -127 20 -22 23 89 vvcurveto
          982 vlineto
          89 22 23 127 20 vhcurveto
          99 -775 vlineto
          -402 -185 -183 -251 hvcurveto
          427 20 rmoveto
          184 100 106 182 8 vhcurveto
          80 3 0 -601 -84 1 rlineto
          -159 3 -119 109 187 vvcurveto
          endchar
        </CharString>
        <CharString name="IJ">
          1664 628 7 callsubr
          -93 callsubr
          -107 callsubr
          83 callsubr
          831 56 -63 callgsubr
          -103 callsubr
          -28 callsubr
          -54 callgsubr
        </CharString>
        <CharString name="IJacute">
          1664 380 -82 callsubr
          97 callsubr
          955 hmoveto
          399 303 rlineto
          10 -50 callsubr
          -461 -1312 -79 callsubr
          -93 callsubr
          -107 callsubr
          83 callsubr
          831 56 -63 callgsubr
          -103 callsubr
          -28 callsubr
          -54 callgsubr
        </CharString>
        <CharString name="IUcyrillic">
          2442 628 224 rmoveto
          452 166 vlineto
          -428 20 324 -277 436 hhcurveto
          473 311 326 429 1 hvcurveto
          451 -331 296 -451 -444 -301 -286 -390 -36 vhcurveto
          -168 423 hlineto
          -37 callsubr
          -48 callsubr
          -107 callsubr
          -52 callsubr
          955 -119 rmoveto
          -203 -121 261 369 361 92 243 218 202 122 -260 -370 -1 hvcurveto
          -361 -92 -243 -217 vhcurveto
          endchar
        </CharString>
        <CharString name="Iacute">
          832 380 -82 callsubr
          97 callsubr
          371 -1312 -79 callsubr
          -93 callsubr
          -107 callsubr
          -81 callsubr
        </CharString>
        <CharString name="Ibreve">
          832 416 -15 callsubr
          38 callsubr
          -129 -92 32 callsubr
          212 -1334 -79 callsubr
          -93 callsubr
          -107 callsubr
          -81 callsubr
        </CharString>
        <CharString name="Icaron">
          832 663 -75 callsubr
          28 callsubr
          -157 -1632 -79 callsubr
          -93 callsubr
          -107 callsubr
          -81 callsubr
        </CharString>
        <CharString name="Icircumflex">
          832 204 -61 callsubr
          -17 callsubr
          545 -1312 -79 callsubr
          -93 callsubr
          -107 callsubr
          -81 callsubr
        </CharString>
        <CharString name="Icyrillic">
          832 628 7 callsubr
          -93 callsubr
          -107 callsubr
          -81 callsubr
        </CharString>
        <CharString name="Idblgrave">
          832 257 1856 rmoveto
          -345 -10 hlineto
          44 callgsubr
          -62 -1312 -79 callsubr
          -93 callsubr
          -107 callsubr
          -81 callsubr
        </CharString>
        <CharString name="Idieresis">
          832 228 1556 rmoveto
          103 callsubr
          -62 callsubr
          -40 callsubr
          -66 callsubr
          24 -1325 -79 callsubr
          -93 callsubr
          -107 callsubr
          -81 callsubr
        </CharString>
        <CharString name="Idieresisacute">
          832 766 147 callsubr
          -80 vlineto
          174 -248 rmoveto
          -58 callsubr
          383 hmoveto
          -58 callsubr
          37 -1318 -79 callsubr
          -93 callsubr
          -107 callsubr
          -81 callsubr
        </CharString>
        <CharString name="Idotaccent">
          832 416 -42 callsubr
          -60 callsubr
          212 -1314 -79 callsubr
          -93 callsubr
          -107 callsubr
          -81 callsubr
        </CharString>
        <CharString name="Idotbelow">
          832 628 7 callsubr
          -93 callsubr
          -107 callsubr
          83 callsubr
          -207 -364 rmoveto
          -91 -73 -65 -90 -91 73 -64 -30 callgsubr
        </CharString>
        <CharString name="Iecyrillic">
          1375 1261 -1 callsubr
          -103 callsubr
          -107 callsubr
          -92 callsubr
        </CharString>
        <CharString name="Igrave">
          832 486 69 callsubr
          544 -1615 -79 callsubr
          -93 callsubr
          -107 callsubr
          -81 callsubr
        </CharString>
        <CharString name="Ihookabove">
          832 457 74 callsubr
          26 49 14 45 callsubr
          68 callsubr
          171 -1670 -79 callsubr
          -93 callsubr
          -107 callsubr
          -81 callsubr
        </CharString>
        <CharString name="Iicyrillic">
          1792 628 224 rmoveto
          45 vlineto
          536 725 rlineto
          -770 vlineto
          -87 -19 134 callsubr
          -71 callsubr
          -73 callsubr
          19 -21 -87 vvcurveto
          -44 vlineto
          -536 -726 rlineto
          770 vlineto
          -37 callsubr
          -48 callsubr
          -107 callsubr
          -47 callsubr
        </CharString>
        <CharString name="Iinvertedbreve">
          832 416 118 callsubr
          212 -1677 -79 callsubr
          -93 callsubr
          -107 callsubr
          -81 callsubr
        </CharString>
        <CharString name="Iishortcyrillic">
          1792 896 94 callgsubr
          -83 -81 183 callsubr
          53 callgsubr
          -268 -1332 rmoveto
          45 vlineto
          536 725 rlineto
          -770 vlineto
          -87 -19 134 callsubr
          -71 callsubr
          -73 callsubr
          19 -21 -87 vvcurveto
          -44 vlineto
          -536 -726 rlineto
          770 vlineto
          -37 callsubr
          -48 callsubr
          -107 callsubr
          -47 callsubr
        </CharString>
        <CharString name="Imacron">
          832 92 -53 callsubr
          536 -1535 -79 callsubr
          -93 callsubr
          -107 callsubr
          -81 callsubr
        </CharString>
        <CharString name="Iocyrillic">
          1375 542 1556 rmoveto
          103 callsubr
          -62 callsubr
          -40 callsubr
          -66 callsubr
          343 -112 -87 callsubr
          -103 callsubr
          -107 callsubr
          -92 callsubr
        </CharString>
        <CharString name="Iogonek">
          832 423 73 callgsubr
          -30 hhcurveto
          -67 -64 77 112 42 9 37 14 26 hvcurveto
          283 99 hlineto
          -129 20 -20 23 89 vvcurveto
          982 -2 callsubr
          48 callsubr
          -107 callsubr
          314 vlineto
          -103 -62 -80 -107 -112 vvcurveto
          -125 102 -81 135 vhcurveto
          endchar
        </CharString>
        <CharString name="Iotadieresisgreek">
          832 228 1556 rmoveto
          103 callsubr
          -62 callsubr
          -40 callsubr
          -66 callsubr
          24 -1325 -79 callsubr
          -93 callsubr
          -107 callsubr
          -81 callsubr
        </CharString>
        <CharString name="Iotagreek">
          832 628 7 callsubr
          -93 callsubr
          -107 callsubr
          -81 callsubr
        </CharString>
        <CharString name="Iotatonosgreek">
          1235 1031 7 callsubr
          128 20 vhcurveto
          99 -721 8 callsubr
          -107 callsubr
          721 99 vlineto
          -128 20 -20 23 89 vvcurveto
          -892 811 -34 callsubr
          98 callsubr
        </CharString>
        <CharString name="Itilde">
          832 553 -8 callsubr
          151 callsubr
          -102 callgsubr
          -19 callgsubr
          -26 callgsubr
          75 -1311 -79 callsubr
          -93 callsubr
          -107 callsubr
          -81 callsubr
        </CharString>
        <CharString name="Itildebelow">
          832 628 7 callsubr
          -93 callsubr
          -107 callsubr
          83 callsubr
          -74 -675 rmoveto
          119 87 88 callsubr
          -23 145 callsubr
          -58 -51 21 -63 hhcurveto
          -118 -87 -70 callgsubr
          77 callgsubr
          51 -20 62 hhcurveto
          endchar
        </CharString>
        <CharString name="J">
          832 628 287 rmoveto
          926 -2 callsubr
          48 callsubr
          -28 callsubr
          73 callsubr
        </CharString>
        <CharString name="Jacute">
          832 381 -29 callsubr
          371 -1256 rmoveto
          926 -2 callsubr
          48 callsubr
          -28 callsubr
          73 callsubr
        </CharString>
        <CharString name="Jcircumflex">
          832 204 -61 callsubr
          -17 callsubr
          545 -1256 rmoveto
          926 -2 callsubr
          48 callsubr
          -28 callsubr
          73 callsubr
        </CharString>
        <CharString name="Jecyrillic">
          832 628 287 rmoveto
          926 -2 callsubr
          48 callsubr
          -28 callsubr
          73 callsubr
        </CharString>
        <CharString name="K">
          1566 628 224 12 callsubr
        </CharString>
        <CharString name="Kaacutecyrillic">
          1566 828 -82 callsubr
          -50 callsubr
          -77 -1319 12 callsubr
        </CharString>
        <CharString name="Kacute">
          1566 828 -82 callsubr
          -50 callsubr
          -77 -1319 12 callsubr
        </CharString>
        <CharString name="Kacyrillic">
          1566 628 224 12 callsubr
        </CharString>
        <CharString name="Kappagreek">
          1566 628 224 12 callsubr
        </CharString>
        <CharString name="Kcaron">
          1566 1111 -75 callsubr
          28 callsubr
          -605 -1639 12 callsubr
        </CharString>
        <CharString name="Kcommaaccent">
          160 callsubr
          203 -705 -72 callsubr
          79 callsubr
          81 callsubr
          152 callsubr
          44 81 -28 98 hhcurveto
          endchar
        </CharString>
        <CharString name="Kdotbelow">
          160 callsubr
          228 -357 27 callsubr
        </CharString>
        <CharString name="Klinebelow">
          160 callsubr
          -106 -602 -80 callsubr
        </CharString>
        <CharString name="L">
          22 callsubr
          endchar
        </CharString>
        <CharString name="Lacute">
          1280 380 -82 callsubr
          -50 callsubr
          970 -1543 rmoveto
          -10 callsubr
          13 callsubr
          endchar
        </CharString>
        <CharString name="Lambdagreek">
          1554 1354 290 rmoveto
          -408 1155 -339 0 -402 -1139 -58 -161 -33 -30 -109 -16 rlinecurve
          -99 469 99 vlineto
          -145 20 -19 39 48 149 rrcurveto
          274 832 274 -840 47 -145 -27 -35 -138 -20 rlinecurve
          -99 761 99 vlineto
          -101 16 -41 24 -53 151 rrcurveto
          endchar
        </CharString>
        <CharString name="Lcaron">
          1280 1043 1158 rmoveto
          223 424 -277 0 -48 -424 rlineto
          286 -1158 rmoveto
          -10 callsubr
          13 callsubr
          endchar
        </CharString>
        <CharString name="Lcircumflexbelow">
          22 callsubr
          393 -469 -3 callsubr
          117 141 callsubr
        </CharString>
        <CharString name="Lcommaaccent">
          22 callsubr
          598 -481 rmoveto
          169 116 73 122 120 -102 70 -138 -96 -75 -32 -40 -32 -81 callgsubr
          58 -2 42 -20 -40 vvcurveto
          -40 -14 callsubr
        </CharString>
        <CharString name="Ldot">
          22 callsubr
          954 678 rmoveto
          106 87 76 106 106 -87 76 -106 -107 -86 -76 -106 -106 86 -76 107 hvcurveto
          endchar
        </CharString>
        <CharString name="Ldotbelow">
          22 callsubr
          624 -133 -68 callsubr
        </CharString>
        <CharString name="Ldotbelowmacron">
          1280 92 -53 callsubr
          1135 -1766 rmoveto
          -10 callsubr
          13 callsubr
          624 -133 -68 callsubr
        </CharString>
        <CharString name="Ljecyrillic">
          2230 33 callgsubr
          362 -1092 hlineto
          -91 -20 -22 -128 -19 vhcurveto
          -99 782 vlineto
          386 220 184 269 277 -235 161 -379 hvcurveto
          -202 307 hlineto
          99 23 29 137 19 vhcurveto
          99 -1269 -99 vlineto
          156 -18 27 -38 6 callgsubr
          1721 294 rmoveto
          -194 -89 -127 -198 -8 vhcurveto
          -84 -3 0 655 77 -1 rlineto
          180 -2 114 -118 -202 vvcurveto
          endchar
        </CharString>
        <CharString name="Llinebelow">
          22 callsubr
          289 -378 -80 callsubr
        </CharString>
        <CharString name="Lslash">
          1280 55 610 rmoveto
          149 37 rlineto
          -416 94 callsubr
          1172 vlineto
          -10 callsubr
          rrcurveto
          -144 -6 0 637 315 77 0 121 -315 -77 rlineto
          338 vlineto
          91 22 25 137 20 vhcurveto
          99 -732 8 callsubr
          -446 vlineto
          -149 -36 rlineto
          endchar
        </CharString>
        <CharString name="M">
          1954 691 1444 57 callsubr
        </CharString>
        <CharString name="Macute">
          1954 939 -82 callsubr
          -50 callsubr
          -125 -99 57 callsubr
        </CharString>
        <CharString name="Mdotaccent">
          1954 975 142 callsubr
          -284 -101 57 callsubr
        </CharString>
        <CharString name="Mdotbelow">
          1954 691 1444 rmoveto
          -631 -99 hlineto
          119 -17 23 -33 -2 -103 rrcurveto
          -25 -933 -4 -116 -18 -26 -121 -18 rlinecurve
          -99 442 99 vlineto
          -124 19 -18 25 117 vvcurveto
          -3 943 392 -1203 240 0 110 398 258 805 22 -978 2 -87 -23 -22 -120 -17 rlinecurve
          -99 709 99 vlineto
          -130 18 -19 22 -2 92 rrcurveto
          -24 982 -2 91 23 23 129 18 rlinecurve
          99 vlineto
          -636 2 -270 -942 rlineto
          -150 -637 -15 callgsubr
          -86 callgsubr
        </CharString>
        <CharString name="Mugreek">
          1954 691 1444 57 callsubr
        </CharString>
        <CharString name="N">
          1571 -25 callsubr
          -19 callsubr
          endchar
        </CharString>
        <CharString name="Nacute">
          1571 789 -29 callsubr
          -24 -99 -18 callsubr
          -19 callsubr
          endchar
        </CharString>
        <CharString name="Ncaron">
          1571 1072 -75 callsubr
          -44 callsubr
          -552 -419 -18 callsubr
          -19 callsubr
          endchar
        </CharString>
        <CharString name="Ncircumflexbelow">
          1571 -25 callsubr
          -19 callsubr
          -746 -840 -3 callsubr
          84 callsubr
          -220 -362 rlineto
          endchar
        </CharString>
        <CharString name="Ncommaaccent">
          1571 -25 callsubr
          -19 callsubr
          -541 -852 -72 callsubr
          -36 callsubr
          85 callsubr
          132 callsubr
        </CharString>
        <CharString name="Ndotaccent">
          1571 824 30 callsubr
          -91 -60 callsubr
          -183 -101 -18 callsubr
          -19 callsubr
          endchar
        </CharString>
        <CharString name="Ndotbelow">
          1571 -25 callsubr
          -19 callsubr
          -515 -504 -68 callsubr
        </CharString>
        <CharString name="Ngrave">
          1571 894 135 callsubr
          148 -402 -18 callsubr
          -19 callsubr
          endchar
        </CharString>
        <CharString name="Njecyrillic">
          2393 628 224 rmoveto
          493 464 -493 vlineto
          -85 -20 -21 -117 -19 vhcurveto
          -99 771 vlineto
          388 217 173 255 261 -235 150 -378 hvcurveto
          -203 359 hlineto
          99 23 29 137 19 vhcurveto
          99 -720 -99 vlineto
          117 -19 20 -22 -84 vvcurveto
          -381 -464 381 vlineto
          -37 callsubr
          -48 callsubr
          -107 callsubr
          -52 callsubr
          1260 199 rmoveto
          -180 -89 -116 -198 -8 vhcurveto
          -86 -3 0 603 78 -1 rlineto
          181 -2 114 -108 -185 vvcurveto
          endchar
        </CharString>
        <CharString name="Nlinebelow">
          1571 -25 callsubr
          -19 callsubr
          -850 -749 -80 callsubr
        </CharString>
        <CharString name="Ntilde">
          1571 961 -36 callgsubr
          -1 -22 -34 -45 hhcurveto
          -30 -24 12 25 -38 hvcurveto
          -30 20 rlineto
          39 -60 -51 21 -65 hhcurveto
          -121 179 callsubr
          -85 callgsubr
          -320 -98 -18 callsubr
          -19 callsubr
          endchar
        </CharString>
        <CharString name="Nugreek">
          1571 -25 callsubr
          -19 callsubr
          endchar
        </CharString>
        <CharString name="O">
          3 callsubr
          70 callsubr
          -101 callsubr
        </CharString>
        <CharString name="OE">
          2179 84 718 rmoveto
          -438 345 -308 443 vhcurveto
          149 119 28 139 hhcurveto
          833 hlineto
          11 460 rlineto
          -94 hlineto
          -65 -278 -58 -51 -244 -10 rrcurveto
          -194 -8 0 567 160 -2 93 -2 28 -39 29 -162 rlinecurve
          89 524 -89 hlineto
          -31 -162 -27 -39 -92 -3 rrcurveto
          -160 -1 0 537 171 -7 241 -11 58 -52 58 -232 rlinecurve
          94 hlineto
          -10 415 rlineto
          -792 hlineto
          -137 -100 28 -155 hhcurveto
          -498 -314 -321 -433 hvcurveto
          448 1 rmoveto
          363 148 257 260 38 36 -5 -11 30 vhcurveto
          -1202 vlineto
          -11 -34 -41 -5 -42 hhcurveto
          -242 -153 253 361 hvcurveto
          endchar
        </CharString>
        <CharString name="Oacute">
          1751 839 -82 callsubr
          0 callsubr
          -631 -824 -104 callsubr
          -101 callsubr
        </CharString>
        <CharString name="Obreve">
          1751 874 1565 rmoveto
          220 116 135 149 21 -2 21 -3 17 hvcurveto
          24 callgsubr
          -790 -846 -104 callsubr
          -101 callsubr
        </CharString>
        <CharString name="Ocaron">
          1751 1122 -75 callsubr
          -44 callsubr
          -1159 -1144 -104 callsubr
          -101 callsubr
        </CharString>
        <CharString name="Ocircumflex">
          1751 662 120 callsubr
          -457 -824 -104 callsubr
          -101 callsubr
        </CharString>
        <CharString name="Ocircumflexacute">
          1751 1224 1865 33 callsubr
          1 -282 rmoveto
          349 84 350 -84 0 83 -317 86 callsubr
          -441 -860 -104 callsubr
          -101 callsubr
        </CharString>
        <CharString name="Ocircumflexdotbelow">
          1751 662 120 callsubr
          -457 -824 -104 callsubr
          449 -335 298 -457 43 callsubr
          vhcurveto
          467 16 rmoveto
          359 52 callsubr
          124 -262 -368 49 callsubr
          -89 callgsubr
          327 -868 131 callsubr
        </CharString>
        <CharString name="Ocircumflexgrave">
          1751 524 127 callsubr
          350 -84 0 83 -317 86 callsubr
          -441 -860 -104 callsubr
          -101 callsubr
        </CharString>
        <CharString name="Ocircumflexhookabove">
          1751 1168 1993 rmoveto
          -89 -80 -31 -43 -48 hvcurveto
          -61 vlineto
          13 30 55 13 48 hhcurveto
          78 38 -26 -34 -35 -38 -26 -88 -16 hvcurveto
          84 -48 rlineto
          151 25 82 49 84 vvcurveto
          83 -94 53 -129 vhcurveto
          -643 -497 rmoveto
          349 84 350 -84 0 83 -317 86 callsubr
          -441 -860 -104 callsubr
          -101 callsubr
        </CharString>
        <CharString name="Ocircumflextilde">
          1751 1015 1807 rmoveto
          131 80 76 134 -1 hvcurveto
          -116 hlineto
          -46 -11 callsubr
          121 callsubr
          -12 rlineto
          -15 52 51 -12 56 hhcurveto
          -490 -311 rmoveto
          349 84 350 -84 0 83 -317 86 callsubr
          -441 -860 -104 callsubr
          -101 callsubr
        </CharString>
        <CharString name="Ocyrillic">
          3 callsubr
          70 callsubr
          -101 callsubr
        </CharString>
        <CharString name="Odblgrave">
          1751 716 1856 rmoveto
          -345 -10 -99 callgsubr
          87 callgsubr
          -1064 -824 -104 callsubr
          -101 callsubr
        </CharString>
        <CharString name="Odieresis">
          1751 686 78 callsubr
          -66 callsubr
          377 hmoveto
          103 callsubr
          -62 callsubr
          -979 -837 -104 callsubr
          -101 callsubr
        </CharString>
        <CharString name="Odieresismacron">
          1751 524 1858 -69 callgsubr
          174 -448 rmoveto
          -58 callsubr
          384 hmoveto
          68 55 44 61 62 -55 43 -68 hvcurveto
          -16 hlineto
          -69 -55 -43 -62 -61 55 -44 69 hvcurveto
          -966 -830 -104 callsubr
          -101 callsubr
        </CharString>
        <CharString name="Odotaccent">
          1751 874 30 callsubr
          92 callsubr
          -790 -826 -104 callsubr
          -101 callsubr
        </CharString>
        <CharString name="Odotaccentmacron">
          1751 524 1830 -69 callgsubr
          350 -431 rmoveto
          75 60 48 68 68 -60 48 -75 -82 callgsubr
          -790 -819 -104 callsubr
          -101 callsubr
        </CharString>
        <CharString name="Odotbelow">
          3 callsubr
          70 callsubr
          449 -335 298 -457 43 callsubr
          vhcurveto
          467 16 rmoveto
          359 52 callsubr
          124 -262 -368 49 callsubr
          -89 callgsubr
          327 -868 131 callsubr
        </CharString>
        <CharString name="Ograve">
          1751 944 135 callsubr
          -459 -1127 -104 callsubr
          -101 callsubr
        </CharString>
        <CharString name="Ohookabove">
          1751 916 1901 rmoveto
          -120 -88 -51 -55 -43 hvcurveto
          -71 vlineto
          19 27 48 14 45 callsubr
          -40 92 callgsubr
          -123 vhcurveto
          -832 -1182 -104 callsubr
          -101 callsubr
        </CharString>
        <CharString name="Ohorn">
          1791 84 719 -104 callsubr
          58 callsubr
        </CharString>
        <CharString name="Ohornacute">
          1791 844 -82 callsubr
          -50 callsubr
          -637 -824 -104 callsubr
          58 callsubr
        </CharString>
        <CharString name="Ohorndotbelow">
          1791 84 719 -104 callsubr
          286 -145 233 -214 120 vhcurveto
          -8 41 44 -5 45 hhcurveto
          169 117 68 131 1 hvcurveto
          1 111 -90 108 -127 55 rrcurveto
          -98 hlineto
          24 -29 17 -61 -56 vvcurveto
          -128 -2 -77 -102 -152 -104 -108 24 -134 hhcurveto
          43 callsubr
          hvcurveto
          467 16 rmoveto
          359 52 callsubr
          124 -262 -368 49 callsubr
          -89 callgsubr
          325 -868 27 callsubr
        </CharString>
        <CharString name="Ohorngrave">
          1791 950 69 callsubr
          -464 -1127 -104 callsubr
          58 callsubr
        </CharString>
        <CharString name="Ohornhookabove">
          1791 921 1901 rmoveto
          -120 -87 -51 -55 -44 hvcurveto
          1 -71 rlineto
          19 26 48 14 51 hhcurveto
          67 40 -25 -44 -43 -33 68 callsubr
          -837 -1182 -104 callsubr
          58 callsubr
        </CharString>
        <CharString name="Ohorntilde">
          1791 1017 1542 rmoveto
          121 90 92 237 151 callsubr
          -25 12 25 -37 -17 callgsubr
          -122 -89 -92 -237 6 hvcurveto
          113 hlineto
          90 2 22 34 45 hhcurveto
          29 25 -13 -24 -26 callgsubr
          -933 -823 -104 callsubr
          58 callsubr
        </CharString>
        <CharString name="Ohungarumlaut">
          1751 661 1856 rmoveto
          -15 -313 128 0 198 303 rlineto
          10 vlineto
          107 hmoveto
          -129 -313 142 0 331 303 rlineto
          10 vlineto
          -1339 -1137 -104 callsubr
          -101 callsubr
        </CharString>
        <CharString name="Oinvertedbreve">
          1751 874 9 callgsubr
          129 92 -61 -85 vhcurveto
          -3 110 -62 callgsubr
          -790 -1189 -104 callsubr
          -101 callsubr
        </CharString>
        <CharString name="Omacron">
          1751 550 -53 callsubr
          -466 -1047 -104 callsubr
          -101 callsubr
        </CharString>
        <CharString name="Omacronacute">
          1751 1224 147 callsubr
          -79 vlineto
          -214 vmoveto
          701 140 -701 hlineto
          -440 -1005 -104 callsubr
          -101 callsubr
        </CharString>
        <CharString name="Omacrongrave">
          1751 524 75 callsubr
          -473 vmoveto
          701 140 -701 hlineto
          -440 -1005 -104 callsubr
          -101 callsubr
        </CharString>
        <CharString name="Omegagreek">
          1637 81 211 callsubr
          -186 -51 -259 219 callsubr
          -259 6 -185 49 -68 158 rrcurveto
          -79 hlineto
          endchar
        </CharString>
        <CharString name="Omegatonosgreek">
          1873 317 211 callsubr
          -187 -51 -258 219 callsubr
          -260 6 -184 49 -68 158 rrcurveto
          -79 hlineto
          -126 605 -34 callsubr
          98 callsubr
        </CharString>
        <CharString name="Omicrongreek">
          3 callsubr
          70 callsubr
          -101 callsubr
        </CharString>
        <CharString name="Omicrontonosgreek">
          1913 247 719 -104 callsubr
          449 -335 298 -458 -477 -313 -327 -427 vhcurveto
          -108 323 153 callsubr
          710 -307 rmoveto
          359 52 callsubr
          123 -262 -368 -359 -94 -245 -224 -89 callgsubr
          endchar
        </CharString>
        <CharString name="Oogonek">
          3 callsubr
          208 callsubr
        </CharString>
        <CharString name="Oogonekmacron">
          1751 550 -53 callsubr
          -466 -1047 rmoveto
          208 callsubr
        </CharString>
        <CharString name="Oslash">
          3 callsubr
          188 callsubr
        </CharString>
        <CharString name="Oslashacute">
          1751 839 -82 callsubr
          0 callsubr
          -631 -824 rmoveto
          188 callsubr
        </CharString>
        <CharString name="Otilde">
          1751 1011 -8 callsubr
          173 callsubr
          31 -20 rlineto
          -39 59 51 -21 64 hhcurveto
          -927 -823 -104 callsubr
          -101 callsubr
        </CharString>
        <CharString name="Otildeacute">
          1751 1224 147 callsubr
          -80 vlineto
          491 -243 rmoveto
          131 80 76 133 -1 hvcurveto
          -116 hlineto
          -45 -11 callsubr
          121 callsubr
          -11 rlineto
          -16 52 51 -12 56 hhcurveto
          -931 -835 -104 callsubr
          -101 callsubr
        </CharString>
        <CharString name="Otildedieresis">
          1751 698 122 callsubr
          384 hmoveto
          68 55 43 61 63 -55 43 -68 hvcurveto
          -16 hlineto
          -69 -55 -43 -63 -61 55 -43 69 hvcurveto
          -35 -268 rmoveto
          131 80 76 133 -1 hvcurveto
          -116 hlineto
          -45 -11 callsubr
          121 callsubr
          -11 rlineto
          -16 52 51 -12 56 hhcurveto
          -931 -835 -104 callsubr
          -101 callsubr
        </CharString>
        <CharString name="Otildemacron">
          1751 524 1857 -69 callgsubr
          491 -442 rmoveto
          131 80 76 133 -1 hvcurveto
          -116 hlineto
          -45 -11 callsubr
          121 callsubr
          -11 rlineto
          -16 52 51 -12 56 hhcurveto
          -931 -835 -104 callsubr
          -101 callsubr
        </CharString>
        <CharString name="P">
          1527 1454 1010 59 callsubr
        </CharString>
        <CharString name="Pacute">
          1527 725 -29 callsubr
          853 -533 59 callsubr
        </CharString>
        <CharString name="Pdotaccent">
          1527 760 -42 callsubr
          -60 callsubr
          694 -535 59 callsubr
        </CharString>
        <CharString name="Pecyrillic">
          1753 1549 -52 callgsubr
          -1643 8 callsubr
          -107 callsubr
          -52 callsubr
          1099 497 -1099 vlineto
          -85 -20 -21 -117 -19 vhcurveto
          -99 710 99 vlineto
          -77 callgsubr
        </CharString>
        <CharString name="Phigreek">
          2012 64 719 rmoveto
          -316 272 -173 472 -12 vhcurveto
          -5 -76 -31 -26 -122 -17 rrcurveto
          -99 712 99 vlineto
          -122 17 -32 26 -5 76 rrcurveto
          466 12 279 171 317 vvcurveto
          319 -294 171 -451 13 vhcurveto
          4 80 30 27 125 17 rrcurveto
          99 -712 -99 vlineto
          125 -17 29 -27 4 -80 rrcurveto
          -443 -13 -301 -167 -322 vvcurveto
          1458 3 rmoveto
          -231 -129 -136 -190 -21 vhcurveto
          772 vlineto
          205 -20 114 -138 -226 vvcurveto
          -1032 1 rmoveto
          223 121 138 198 22 vhcurveto
          -773 vlineto
          -195 21 -124 135 234 vvcurveto
          endchar
        </CharString>
        <CharString name="Pigreek">
          1725 1521 -52 callgsubr
          -1615 8 callsubr
          -107 callsubr
          -52 callsubr
          1099 470 -1099 vlineto
          -85 -20 -21 -117 -19 vhcurveto
          -99 709 99 vlineto
          -77 callgsubr
        </CharString>
        <CharString name="Psigreek">
          1974 1184 246 rmoveto
          231 vlineto
          362 18 173 133 55 351 rrcurveto
          29 195 18 120 31 33 95 6 rlinecurve
          98 vlineto
          6 -35 -74 7 -64 hhcurveto
          -198 -98 -73 -220 -34 hvcurveto
          -31 -199 -35 -224 -49 -100 -145 -26 rlinecurve
          618 vlineto
          86 20 21 116 18 vhcurveto
          99 -667 -99 vlineto
          117 -18 20 -21 -86 vvcurveto
          -618 vlineto
          -145 26 -49 100 -36 224 -30 199 rcurveline
          220 -35 -97 73 -198 hhcurveto
          -64 -74 -7 -6 -36 hvcurveto
          -98 vlineto
          96 -6 30 -33 18 -120 rrcurveto
          30 -195 54 -351 173 -133 363 -18 rlinecurve
          -231 vlineto
          -98 -22 -30 -137 -19 vhcurveto
          -99 712 99 vlineto
          -137 19 -22 30 98 vvcurveto
          endchar
        </CharString>
        <CharString name="Q">
          3 callsubr
          -402 266 -281 382 -55 vhcurveto
          156 -153 rlineto
          -173 173 113 -49 168 hhcurveto
          126 125 30 54 100 hvcurveto
          91 vlineto
          -121 -12 -102 46 -181 151 -79 67 rcurveline
          284 114 173 262 317 vvcurveto
          449 -334 298 -456 -479 -314 -327 -427 vhcurveto
          467 16 rmoveto
          359 94 245 223 208 124 -262 -368 vhcurveto
          -359 -1 -94 -245 -222 hhcurveto
          -208 -124 262 368 hvcurveto
          endchar
        </CharString>
        <CharString name="R">
          1536 1428 1049 159 callsubr
          endchar
        </CharString>
        <CharString name="Racute">
          1536 707 -29 callsubr
          845 -494 159 callsubr
          endchar
        </CharString>
        <CharString name="Rcaron">
          1536 990 -75 callsubr
          -44 callsubr
          317 -814 159 callsubr
          endchar
        </CharString>
        <CharString name="Rcommaaccent">
          -49 callgsubr
          -201 -1506 -72 callsubr
          -36 callsubr
          85 callsubr
          -14 callsubr
        </CharString>
        <CharString name="Rdblgrave">
          1536 583 1856 rmoveto
          -344 -10 -99 callgsubr
          87 callgsubr
          412 -494 159 callsubr
          endchar
        </CharString>
        <CharString name="Rdotaccent">
          1536 742 -42 callsubr
          -60 callsubr
          686 -496 159 callsubr
          endchar
        </CharString>
        <CharString name="Rdotbelow">
          -49 callgsubr
          -175 -1158 -68 callsubr
        </CharString>
        <CharString name="Rdotbelowmacron">
          1536 418 -53 callsubr
          1010 -717 159 callsubr
          -175 -1158 -68 callsubr
        </CharString>
        <CharString name="Rhogreek">
          1527 1454 1010 59 callsubr
        </CharString>
        <CharString name="Rinvertedbreve">
          1536 742 9 callgsubr
          128 93 -61 -85 vhcurveto
          -3 110 -62 callgsubr
          686 -859 159 callsubr
          endchar
        </CharString>
        <CharString name="Rlinebelow">
          -49 callgsubr
          -510 -1403 -80 callsubr
        </CharString>
        <CharString name="S">
          1344 625 -29 105 callsubr
          endchar
        </CharString>
        <CharString name="Sacute">
          1344 676 -82 callsubr
          -50 callsubr
          72 -1572 105 callsubr
          endchar
        </CharString>
        <CharString name="Sacutedotaccent">
          1344 712 1778 rmoveto
          -75 callgsubr
          -75 -59 -48 -68 -68 59 -48 75 hvcurveto
          350 -158 33 callsubr
          263 -1562 105 callsubr
          endchar
        </CharString>
        <CharString name="Scaron">
          1344 959 -75 callsubr
          28 callsubr
          -456 -1892 105 callsubr
          endchar
        </CharString>
        <CharString name="Scarondotaccent">
          1344 712 1800 rmoveto
          75 59 49 67 68 -59 48 -75 -75 -59 27 callgsubr
          67 0 325 168 rlineto
          -446 -1743 105 callsubr
          endchar
        </CharString>
        <CharString name="Scedilla">
          1344 622 -481 rmoveto
          155 136 -104 callgsubr
          -3 -4 0 -3 hhcurveto
          58 62 rlineto
          317 22 242 159 285 vvcurveto
          221 -128 153 -281 88 vhcurveto
          -131 40 rlineto
          -152 48 -73 62 102 vvcurveto
          108 82 77 155 182 129 -122 -210 45 vhcurveto
          94 hlineto
          -9 366 rlineto
          60 -92 -166 40 -195 hhcurveto
          -395 -239 -182 -278 -216 142 -150 266 -82 hvcurveto
          131 -41 rlineto
          158 -49 68 -68 -108 vvcurveto
          -114 -93 -80 -153 -195 -167 127 238 -51 vhcurveto
          -94 hlineto
          11 -391 98 -57 178 -44 193 -6 rlinecurve
          -103 -117 1 -75 rlineto
          3 8 19 2 16 hhcurveto
          64 41 -23 -45 -44 -42 -24 -61 -52 -45 callgsubr
          endchar
        </CharString>
        <CharString name="Schwa">
          1566 723 -29 rmoveto
          469 290 295 448 498 -332 261 -475 -219 -195 -37 -60 -94 hvcurveto
          -8 -404 rlineto
          94 hlineto
          227 57 128 140 206 hhcurveto
          241 137 -217 -401 5 hvcurveto
          -959 hlineto
          -5 -31 -6 -47 -45 vvcurveto
          -374 235 -253 431 vhcurveto
          -263 578 rmoveto
          18 1 18 1 18 vhcurveto
          563 1 rlineto
          -327 -16 -102 -172 -180 hhcurveto
          -195 -72 202 242 hvcurveto
          endchar
        </CharString>
        <CharString name="Scircumflex">
          1344 500 -61 callsubr
          230 -141 123 0 -216 312 -273 0 -216 -312 rlineto
          247 -1572 105 callsubr
          endchar
        </CharString>
        <CharString name="Scommaaccent">
          1344 625 -29 105 callsubr
          6 -452 -72 callsubr
          -36 callsubr
          85 callsubr
          132 callsubr
        </CharString>
        <CharString name="Sdotaccent">
          1344 712 142 callsubr
          -87 -1574 105 callsubr
          endchar
        </CharString>
        <CharString name="Sdotbelow">
          1344 625 -29 105 callsubr
          31 -104 27 callsubr
        </CharString>
        <CharString name="Sdotbelowdotaccent">
          1344 712 142 callsubr
          -87 -1574 105 callsubr
          31 -104 27 callsubr
        </CharString>
        <CharString name="Shacyrillic">
          2535 2331 231 rmoveto
          982 -2 callsubr
          96 callsubr
          34 callgsubr
          117 -19 19 -21 -85 vvcurveto
          -1099 -427 1099 vlineto
          85 19 21 118 19 vhcurveto
          99 -48 callsubr
          -107 callsubr
          2425 99 vlineto
          -129 20 -20 23 89 vvcurveto
          endchar
        </CharString>
        <CharString name="Shchacyrillic">
          2560 2521 121 rmoveto
          -190 1092 hlineto
          89 20 23 129 20 vhcurveto
          99 96 callsubr
          34 callgsubr
          116 -19 20 -21 -85 vvcurveto
          -1099 -427 1099 vlineto
          85 19 21 118 19 vhcurveto
          99 -48 callsubr
          -107 callsubr
          2028 vlineto
          215 48 -44 -281 86 hvcurveto
          97 hlineto
          endchar
        </CharString>
        <CharString name="Sigmagreek">
          83 callgsubr
          471 -668 -466 -467 rlineto
          -215 1201 vlineto
          11 562 rlineto
          -110 hlineto
          -232 -55 -65 -44 -263 hhcurveto
          -476 hlineto
          566 509 0 29 -344 507 237 -7 262 -10 55 -61 57 -220 rlinecurve
          94 hlineto
          endchar
        </CharString>
        <CharString name="Softsigncyrillic">
          1505 205 callsubr
          -446 -5 2 callgsubr
        </CharString>
        <CharString name="T">
          1435 -41 callsubr
          -64 callsubr
          -54 callsubr
          80 callsubr
          endchar
        </CharString>
        <CharString name="Taugreek">
          1435 -41 callsubr
          -64 callsubr
          -54 callsubr
          80 callsubr
          endchar
        </CharString>
        <CharString name="Tbar">
          1435 216 684 rmoveto
          290 -439 hlineto
          -98 -23 -29 -136 -20 vhcurveto
          -98 742 98 vlineto
          -137 20 -23 29 98 vvcurveto
          439 291 112 -291 534 vlineto
          41 -2 219 -15 61 -51 50 -234 rlinecurve
          93 hlineto
          -10 416 -1331 0 -10 -64 callsubr
          2 rcurveline
          -534 -290 vlineto
          endchar
        </CharString>
        <CharString name="Tcaron">
          1435 965 -75 callsubr
          -44 callsubr
          297 -419 rmoveto
          -1331 hlineto
          -10 -64 callsubr
          -54 callsubr
          80 callsubr
          endchar
        </CharString>
        <CharString name="Tcedilla">
          1435 684 -481 rmoveto
          155 135 -104 callgsubr
          -3 -4 0 -4 hhcurveto
          82 88 rlineto
          303 99 hlineto
          -137 19 -23 30 98 vvcurveto
          74 callgsubr
          -10 416 -1331 0 -10 -64 callsubr
          -54 callsubr
          317 vlineto
          -126 -145 10 callsubr
          35 callsubr
          -51 -45 callgsubr
          endchar
        </CharString>
        <CharString name="Tcircumflexbelow">
          1435 -41 callsubr
          -64 callsubr
          -54 callsubr
          80 callsubr
          -906 -1497 -3 callsubr
          84 callsubr
          -221 -362 rlineto
          endchar
        </CharString>
        <CharString name="Tcommaaccent">
          1435 -41 callsubr
          -64 callsubr
          -54 callsubr
          80 callsubr
          -701 -1509 -72 callsubr
          -36 callsubr
          -31 -81 callgsubr
          57 -2 43 -20 -40 vvcurveto
          -40 -14 callsubr
        </CharString>
        <CharString name="Tdotaccent">
          1435 717 1545 rmoveto
          92 73 65 89 91 -73 64 -92 92 callsubr
          666 -101 rmoveto
          -1331 hlineto
          -10 -64 callsubr
          -54 callsubr
          80 callsubr
          endchar
        </CharString>
        <CharString name="Tdotbelow">
          1435 -41 callsubr
          -64 callsubr
          -54 callsubr
          80 callsubr
          -676 -1161 131 callsubr
        </CharString>
        <CharString name="Tecyrillic">
          1435 -41 callsubr
          -64 callsubr
          -54 callsubr
          80 callsubr
          endchar
        </CharString>
        <CharString name="Thetagreek">
          1766 881 -29 rmoveto
          484 319 327 427 450 -340 298 -459 -485 -318 -327 -428 -449 340 -298 459 hvcurveto
          7 117 rmoveto
          -237 -137 257 390 384 109 237 254 239 136 -255 -392 -385 -110 -236 -254 hvcurveto
          -256 374 rmoveto
          75 hlineto
          138 22 37 44 90 hhcurveto
          55 hlineto
          89 38 -44 -138 21 hvcurveto
          76 506 -76 hlineto
          -136 -21 -38 -45 -89 hhcurveto
          -55 hlineto
          -90 -37 45 136 -22 hvcurveto
          -75 hlineto
          endchar
        </CharString>
        <CharString name="Thorn">
          1504 1448 745 rmoveto
          276 -245 121 -405 vhcurveto
          -170 56 hlineto
          99 23 29 136 19 vhcurveto
          99 -732 -99 vlineto
          129 -20 20 -23 -88 vvcurveto
          -984 vlineto
          -88 -20 -23 -129 -20 vhcurveto
          -99 732 39 callsubr
          74 170 vlineto
          387 1 263 150 274 vvcurveto
          -446 -21 rmoveto
          -179 -114 -101 -194 -8 vhcurveto
          -66 -2 0 595 66 -3 rlineto
          205 -7 103 -120 -175 vvcurveto
          endchar
        </CharString>
        <CharString name="Tlinebelow">
          1435 -41 callsubr
          -64 callsubr
          -54 callsubr
          80 callsubr
          -1010 -1406 -80 callsubr
        </CharString>
        <CharString name="Tsecyrillic">
          1778 1739 121 rmoveto
          -190 1092 hlineto
          89 21 23 128 20 vhcurveto
          99 96 callsubr
          -22 -84 vvcurveto
          -1099 -497 1099 vlineto
          -37 callsubr
          -48 callsubr
          -107 callsubr
          1246 vlineto
          215 48 -44 -281 86 hvcurveto
          98 hlineto
          endchar
        </CharString>
        <CharString name="Tshecyrillic">
          1920 -41 callsubr
          224 callsubr
          400 vlineto
          27 44 70 16 80 hhcurveto
          152 85 -85 -185 hvcurveto
          -405 562 99 vlineto
          -119 19 -19 21 85 vvcurveto
          182 vlineto
          312 -210 122 -281 -1 vhcurveto
          -162 -129 -37 -44 -73 hvcurveto
          570 93 callgsubr
        </CharString>
        <CharString name="U">
          1587 175 1219 -86 callsubr
        </CharString>
        <CharString name="Uacute">
          1587 838 -29 callsubr
          -539 -324 -86 callsubr
        </CharString>
        <CharString name="Ubreve">
          1587 873 -15 callsubr
          38 callsubr
          -128 -93 32 callsubr
          -698 -346 -86 callsubr
        </CharString>
        <CharString name="Ubrevecyrillic">
          1509 852 1556 rmoveto
          217 149 100 145 84 -55 59 -84 -81 -57 -60 -74 -47 24 -41 36 -23 hvcurveto
          -20 -41 -51 -12 -57 hhcurveto
          -56 -52 12 20 -41 hvcurveto
          36 23 25 41 47 vvcurveto
          74 -58 60 -80 -84 -56 -21 callgsubr
          -621 -1405 195 callsubr
        </CharString>
        <CharString name="Ucaron">
          1587 1120 -75 callsubr
          -32 callgsubr
          274 0 215 312 rlineto
          -1067 -644 -86 callsubr
        </CharString>
        <CharString name="Ucircumflex">
          1587 661 -61 callsubr
          -17 callsubr
          -365 -324 -86 callsubr
        </CharString>
        <CharString name="Ucircumflexbelow">
          115 callsubr
          442 -1688 -3 callsubr
          84 callsubr
          -221 -362 rlineto
          endchar
        </CharString>
        <CharString name="Ucyrillic">
          1509 231 151 195 callsubr
        </CharString>
        <CharString name="Udblgrave">
          1587 714 1856 rmoveto
          -344 -10 -99 callgsubr
          313 rmoveto
          -311 -22 callgsubr
          -972 -324 -86 callsubr
        </CharString>
        <CharString name="Udieresis">
          1587 685 1556 rmoveto
          83 68 60 84 85 -68 60 -83 -62 callsubr
          -40 callsubr
          -66 callsubr
          -886 -337 -86 callsubr
        </CharString>
        <CharString name="Udieresisacute">
          1587 1223 147 callsubr
          -80 vlineto
          174 -248 rmoveto
          -58 callsubr
          76 callsubr
          90 callsubr
          -873 -330 -86 callsubr
        </CharString>
        <CharString name="Udieresisbelow">
          115 callsubr
          436 -1661 rmoveto
          93 76 64 90 90 -76 64 -93 -93 -76 -64 -90 -90 75 -64 94 hvcurveto
          473 hmoveto
          186 callsubr
          endchar
        </CharString>
        <CharString name="Udieresiscaron">
          1587 1222 -4 callgsubr
          76 callsubr
          90 callsubr
          -873 -330 -86 callsubr
        </CharString>
        <CharString name="Udieresisgrave">
          1587 523 18 callgsubr
          76 callsubr
          90 callsubr
          -873 -330 -86 callsubr
        </CharString>
        <CharString name="Udieresismacron">
          1587 522 1858 -69 callgsubr
          175 -448 rmoveto
          -58 callsubr
          76 callsubr
          90 callsubr
          -873 -330 -86 callsubr
        </CharString>
        <CharString name="Udotbelow">
          115 callsubr
          673 -1352 -68 callsubr
        </CharString>
        <CharString name="Ugrave">
          1587 943 69 callsubr
          -366 -627 -86 callsubr
        </CharString>
        <CharString name="Uhookabove">
          1587 914 74 callsubr
          27 48 14 45 callsubr
          68 callsubr
          -739 -682 -86 callsubr
        </CharString>
        <CharString name="Uhorn">
          1756 177 546 56 callsubr
        </CharString>
        <CharString name="Uhornacute">
          1756 847 -82 callsubr
          0 callsubr
          -546 -997 56 callsubr
        </CharString>
        <CharString name="Uhorndotbelow">
          1756 177 546 rmoveto
          -381 277 -194 350 362 239 227 362 3 vhcurveto
          6 810 rlineto
          -2 20 21 -2 19 hhcurveto
          163 106 70 123 112 -85 100 -122 54 hvcurveto
          -98 hlineto
          24 -29 17 -60 -1 -58 rrcurveto
          -123 -1 -82 -111 -187 hhcurveto
          -105 -99 hlineto
          143 -24 18 -22 1 -109 5 -618 rcurveline
          -256 1 -124 -136 -203 hhcurveto
          -204 -140 127 257 hvcurveto
          648 vlineto
          89 22 20 140 24 vhcurveto
          99 -733 -99 vlineto
          126 -22 22 -22 -89 vvcurveto
          644 -1345 -15 callgsubr
          -86 callgsubr
        </CharString>
        <CharString name="Uhorngrave">
          1756 952 135 callsubr
          -374 -1300 56 callsubr
        </CharString>
        <CharString name="Uhornhookabove">
          1756 923 74 callsubr
          27 48 14 45 callsubr
          -40 92 callgsubr
          -124 vhcurveto
          -746 -1355 56 callsubr
        </CharString>
        <CharString name="Uhorntilde">
          1756 1019 -8 callsubr
          173 callsubr
          -85 callgsubr
          -842 -996 56 callsubr
        </CharString>
        <CharString name="Uhungarumlaut">
          1587 659 1856 rmoveto
          -14 -313 128 0 198 303 rlineto
          10 vlineto
          106 hmoveto
          -128 -313 142 0 331 303 rlineto
          10 vlineto
          -1247 -637 -86 callsubr
        </CharString>
        <CharString name="Uinvertedbreve">
          1587 873 118 callsubr
          -698 -689 -86 callsubr
        </CharString>
        <CharString name="Umacron">
          1587 549 -53 callsubr
          -374 -547 -86 callsubr
        </CharString>
        <CharString name="Umacrondieresis">
          1587 697 122 callsubr
          383 hmoveto
          69 55 43 61 63 -55 43 -69 hvcurveto
          -16 hlineto
          -68 -55 -43 59 callgsubr
          -373 -505 -86 callsubr
        </CharString>
        <CharString name="Uogonek">
          1587 850 73 callgsubr
          -31 hhcurveto
          -66 -64 72 106 37 7 33 13 25 hvcurveto
          307 43 179 220 4 320 rrcurveto
          7 623 1 114 18 165 callsubr
          -671 vlineto
          -373 262 -194 338 -10 vhcurveto
          -93 -61 -69 -93 -99 vvcurveto
          -124 102 -81 135 vhcurveto
          endchar
        </CharString>
        <CharString name="Upsilondieresisgreek">
          1471 648 78 callsubr
          -66 callsubr
          377 hmoveto
          103 callsubr
          -62 callsubr
          -813 -399 -65 callsubr
        </CharString>
        <CharString name="Upsilongreek">
          1471 212 1157 -65 callsubr
        </CharString>
        <CharString name="Upsilontonosgreek">
          1912 653 1157 rmoveto
          315 -554 rlineto
          -357 vlineto
          -98 -23 -30 -136 -19 vhcurveto
          -99 742 99 vlineto
          -137 19 -22 30 98 vvcurveto
          377 vlineto
          305 -42 callgsubr
          -456 -99 vlineto
          137 -17 13 -34 -75 -145 rrcurveto
          -207 -400 -219 406 -74 139 13 34 135 17 rlinecurve
          99 -751 -99 vlineto
          106 -18 31 -30 82 -140 rrcurveto
          -514 -115 -34 callsubr
          98 callsubr
        </CharString>
        <CharString name="Uring">
          1587 575 3 callgsubr
          37 46 49 49 37 -46 -66 -66 -37 -44 -49 -49 -37 44 66 vhcurveto
          -612 -527 -86 callsubr
        </CharString>
        <CharString name="Utilde">
          1587 1010 -36 callgsubr
          -1 -23 -34 -45 hhcurveto
          -29 -102 callgsubr
          -19 callgsubr
          38 hvcurveto
          -85 callgsubr
          -835 -323 -86 callsubr
        </CharString>
        <CharString name="Utildeacute">
          1587 1223 147 callsubr
          91 callgsubr
          -116 hlineto
          -45 -26 -20 -49 -29 -31 7 11 -39 vhcurveto
          -41 12 rlineto
          15 -101 callgsubr
          89 callsubr
          -11 rlineto
          -16 51 51 -12 57 hhcurveto
          -839 -335 -86 callsubr
        </CharString>
        <CharString name="Utildebelow">
          115 callsubr
          806 -1663 rmoveto
          119 87 90 228 -6 hvcurveto
          -106 hlineto
          -88 -2 -22 145 callsubr
          29 callgsubr
        </CharString>
        <CharString name="V">
          95 callgsubr
          endchar
        </CharString>
        <CharString name="Vdotbelow">
          95 callgsubr
          583 -1268 rmoveto
          -91 -73 -65 -90 -91 73 -64 -30 callgsubr
        </CharString>
        <CharString name="Vecyrillic">
          1555 1482 428 113 callsubr
        </CharString>
        <CharString name="Vtilde">
          1532 991 -36 callgsubr
          -1 -22 -34 -45 hhcurveto
          -30 -24 12 25 -38 hvcurveto
          -31 20 rlineto
          39 -59 -52 21 -64 hhcurveto
          -121 179 callsubr
          -85 callgsubr
          -796 -407 rmoveto
          203 callsubr
          endchar
        </CharString>
        <CharString name="W">
          2345 187 1135 11 callsubr
        </CharString>
        <CharString name="Wacute">
          2345 1258 -82 callsubr
          -50 callsubr
          -948 -408 11 callsubr
        </CharString>
        <CharString name="Wcircumflex">
          2345 1082 -61 callsubr
          229 -141 -55 callgsubr
          -773 -408 11 callsubr
        </CharString>
        <CharString name="Wdieresis">
          2345 1105 78 callsubr
          -66 callsubr
          377 hmoveto
          103 callsubr
          -62 callsubr
          -1295 -421 11 callsubr
        </CharString>
        <CharString name="Wdotaccent">
          2345 1293 1545 rmoveto
          92 73 65 89 91 -73 64 -92 92 callsubr
          -1106 -410 11 callsubr
        </CharString>
        <CharString name="Wdotbelow">
          2345 187 1135 rmoveto
          352 -1136 327 0 309 1012 296 -1012 335 0 347 1123 55 177 31 29 114 17 rlinecurve
          99 -468 -99 vlineto
          138 -20 14 -32 -42 -162 rrcurveto
          -211 -786 -218 793 -44 157 11 28 137 22 rlinecurve
          99 -714 -99 vlineto
          134 -20 12 -28 -40 -151 rrcurveto
          -215 -802 -216 789 -43 159 15 32 142 21 rlinecurve
          99 -751 -99 vlineto
          110 -17 33 -29 50 -164 rrcurveto
          987 -1268 rmoveto
          -91 -73 -65 -90 -91 73 -64 -30 callgsubr
        </CharString>
        <CharString name="Wgrave">
          2345 1364 1543 rmoveto
          123 hlineto
          -110 312 rlineto
          -415 -9 hlineto
          -775 -711 11 callsubr
        </CharString>
        <CharString name="X">
          1504 288 322 55 callsubr
        </CharString>
        <CharString name="Xdieresis">
          1504 672 78 callsubr
          -68 -60 -85 -84 67 -60 84 hvcurveto
          -40 callsubr
          -66 callsubr
          -760 -1234 55 callsubr
        </CharString>
        <CharString name="Xdotaccent">
          1504 860 -42 callsubr
          -60 callsubr
          -572 -1223 55 callsubr
        </CharString>
        <CharString name="Xigreek">
          1393 1306 1444 rmoveto
          -1219 hlineto
          -21 -498 rlineto
          94 hlineto
          192 47 61 26 239 hhcurveto
          379 hlineto
          239 60 -26 -192 47 hvcurveto
          94 hlineto
          -689 -284 rmoveto
          119 hlineto
          136 44 -42 -145 28 hvcurveto
          88 497 -88 hlineto
          -145 -29 -43 -41 -136 hhcurveto
          -119 36 callgsubr
          685 -662 rmoveto
          21 545 rlineto
          -95 hlineto
          -228 -52 -63 -33 -257 hhcurveto
          -359 hlineto
          -258 -63 33 228 -52 hvcurveto
          -94 hlineto
          20 -545 rlineto
          endchar
        </CharString>
        <CharString name="Xigreek.1">
          1393 638 662 rmoveto
          14 -378 -135 hlineto
          -257 -63 33 228 -52 hvcurveto
          -94 hlineto
          20 -545 1252 0 20 545 rlineto
          -94 hlineto
          -228 -52 -63 -33 -258 hhcurveto
          -133 378 13 hlineto
          136 44 -42 -145 28 hvcurveto
          89 497 -89 hlineto
          -145 -28 -44 -41 -136 hhcurveto
          -13 378 144 hlineto
          238 61 -26 -192 47 hvcurveto
          94 hlineto
          -20 498 -1219 0 -21 -498 rlineto
          94 hlineto
          192 47 60 26 239 hhcurveto
          145 -378 -14 36 callgsubr
          endchar
        </CharString>
        <CharString name="Y">
          1471 212 1157 -65 callsubr
        </CharString>
        <CharString name="Yacute">
          1471 801 -82 callsubr
          0 callsubr
          -465 -386 -65 callsubr
        </CharString>
        <CharString name="Ycircumflex">
          1471 624 120 callsubr
          -291 -386 -65 callsubr
        </CharString>
        <CharString name="Ydieresis">
          1471 648 78 callsubr
          -66 callsubr
          377 hmoveto
          103 callsubr
          -62 callsubr
          -813 -399 -65 callsubr
        </CharString>
        <CharString name="Ydotaccent">
          1471 836 30 callsubr
          92 callsubr
          -624 -388 -65 callsubr
        </CharString>
        <CharString name="Ydotbelow">
          1471 212 1157 rmoveto
          316 -554 rlineto
          -357 vlineto
          -98 -23 -30 -137 -19 vhcurveto
          -99 742 39 callsubr
          377 vlineto
          306 -42 callgsubr
          -457 -99 vlineto
          137 -17 13 -34 -5 callgsubr
          541 -1290 27 callsubr
        </CharString>
        <CharString name="Yericyrillic">
          2248 205 callsubr
          600 -222 rmoveto
          982 vlineto
          89 21 23 128 20 vhcurveto
          99 -721 93 callsubr
          47 callsubr
          721 99 vlineto
          -128 20 -21 23 89 vvcurveto
          -1046 217 2 callgsubr
        </CharString>
        <CharString name="Ygrave">
          1471 906 135 callsubr
          -293 -689 -65 callsubr
        </CharString>
        <CharString name="Yhookabove">
          1471 878 1901 rmoveto
          -120 -88 -51 -55 -43 hvcurveto
          -71 vlineto
          19 27 48 14 45 callsubr
          -40 92 callgsubr
          -123 vhcurveto
          -666 -744 -65 callsubr
        </CharString>
        <CharString name="Yicyrillic">
          832 228 1556 rmoveto
          103 callsubr
          -62 callsubr
          -40 callsubr
          -66 callsubr
          24 -1325 -79 callsubr
          -93 callsubr
          -107 callsubr
          -81 callsubr
        </CharString>
        <CharString name="Ymacron">
          1471 513 1590 rmoveto
          647 176 -647 hlineto
          -301 -609 -65 callsubr
        </CharString>
        <CharString name="Ytilde">
          1471 973 -8 callsubr
          173 callsubr
          31 -20 rlineto
          -39 59 51 -21 64 hhcurveto
          -761 -385 -65 callsubr
        </CharString>
        <CharString name="Z">
          1360 1275 hmoveto
          21 callsubr
        </CharString>
        <CharString name="Zacute">
          1360 670 -29 callsubr
          729 -1543 rmoveto
          21 callsubr
        </CharString>
        <CharString name="Zcaron">
          1360 952 -75 callsubr
          -32 callgsubr
          274 0 215 312 rlineto
          201 -1863 rmoveto
          21 callsubr
        </CharString>
        <CharString name="Zcircumflex">
          1360 493 -61 callsubr
          -17 callsubr
          903 -1543 rmoveto
          21 callsubr
        </CharString>
        <CharString name="Zdotaccent">
          1360 705 -42 callsubr
          -60 callsubr
          570 -1545 rmoveto
          21 callsubr
        </CharString>
        <CharString name="Zdotbelow">
          19 callgsubr
          619 -137 rmoveto
          -90 -74 -64 -91 -90 74 -65 90 90 74 65 90 91 -73 64 -91 hvcurveto
          endchar
        </CharString>
        <CharString name="Zecyrillic">
          1344 1271 422 rmoveto
          224 -198 117 -259 19 vhcurveto
          231 32 185 111 193 vvcurveto
          234 -234 121 -402 -190 -180 -47 -55 -94 vhcurveto
          -9 -372 rlineto
          94 hlineto
          216 49 113 124 175 hhcurveto
          154 84 -95 -163 -176 -107 -100 -184 hvcurveto
          -116 -120 116 hlineto
          210 115 -100 -183 -194 -113 -103 -172 -163 -131 112 233 -52 hvcurveto
          -94 hlineto
          10 -372 rlineto
          -60 103 186 -47 184 hhcurveto
          380 309 152 299 hvcurveto
          endchar
        </CharString>
        <CharString name="Zetagreek">
          1360 1275 hmoveto
          21 callsubr
        </CharString>
        <CharString name="Zhecyrillic">
          2234 460 hmoveto
          360 671 91 1 rlineto
          -448 vlineto
          -87 -19 -21 -119 -17 vhcurveto
          -99 669 99 vlineto
          -118 17 -20 21 87 vvcurveto
          448 vlineto
          91 -1 360 -671 rlineto
          485 94 hlineto
          -68 26 -34 39 -125 227 rrcurveto
          -322 591 130 136 167 169 62 39 136 24 rlinecurve
          99 -528 -99 vlineto
          130 -17 17 -38 -98 -118 -314 -380 rcurveline
          -89 428 hlineto
          87 20 21 118 17 vhcurveto
          99 -669 -99 vlineto
          119 -17 19 -21 -87 vvcurveto
          -428 -89 vlineto
          -314 380 -98 118 18 38 129 17 rlinecurve
          99 -528 -99 vlineto
          136 -24 53 -36 165 -170 rrcurveto
          149 -158 -311 -571 -125 -227 -34 -39 -68 -26 rlinecurve
          -94 vlineto
          endchar
        </CharString>
        <CharString name="Zlinebelow">
          19 callgsubr
          285 -381 rmoveto
          669 180 -669 hlineto
          endchar
        </CharString>
        <CharString name="a">
          1272 100 callsubr
          -95 callsubr
        </CharString>
        <CharString name="a.dnum">
          812 239 -14 193 callsubr
        </CharString>
        <CharString name="a.numr">
          809 239 631 193 callsubr
        </CharString>
        <CharString name="a.sups">
          812 239 801 rmoveto
          105 79 40 63 32 hvcurveto
          -62 16 77 -37 82 hhcurveto
          62 53 15 21 29 hvcurveto
          64 vlineto
          -2 -6 -8 0 -10 hhcurveto
          -29 -24 18 43 hvcurveto
          217 vlineto
          157 -113 67 -195 -192 -112 -74 -86 -56 45 -38 63 64 47 45 57 24 -9 22 -15 17 vhcurveto
          1 11 13 1 12 hhcurveto
          84 46 -37 -89 hvcurveto
          -34 vlineto
          -122 -24 rlineto
          -199 -39 -66 -68 -84 vvcurveto
          -82 68 -60 107 callgsubr
          5 rlineto
          -138 vlineto
          -19 -11 -27 -13 -33 hhcurveto
          -38 -31 23 44 hvcurveto
          endchar
        </CharString>
        <CharString name="aacute">
          1272 536 -94 callsubr
          -51 callsubr
          -39 -1176 -97 callsubr
          -95 callsubr
        </CharString>
        <CharString name="abreve">
          1272 587 24 callsubr
          -95 callgsubr
          -215 -1189 -97 callsubr
          -95 callsubr
        </CharString>
        <CharString name="abreveacute">
          1272 929 -35 callsubr
          -23 callsubr
          341 -327 111 callsubr
        </CharString>
        <CharString name="abrevecyrillic">
          1272 588 -48 callgsubr
          -60 61 -92 79 callgsubr
          -66 -57 17 27 -43 hvcurveto
          50 19 36 52 60 vvcurveto
          81 -62 66 -82 -93 -59 -60 -97 -161 158 -119 219 vhcurveto
          -216 -1181 -97 callsubr
          -95 callsubr
        </CharString>
        <CharString name="abrevedotbelow">
          1272 587 24 callsubr
          -95 callgsubr
          -215 -1189 -97 callsubr
          54 callsubr
          201 -744 -84 callsubr
        </CharString>
        <CharString name="abrevegrave">
          1272 246 139 callsubr
          341 -631 111 callsubr
        </CharString>
        <CharString name="abrevehookabove">
          1272 577 13 callgsubr
          -90 -19 hvcurveto
          86 -57 rlineto
          154 30 83 57 99 vvcurveto
          98 -95 63 -132 vhcurveto
          10 -615 111 callsubr
        </CharString>
        <CharString name="abrevetilde">
          1272 725 1472 rmoveto
          127 -28 callgsubr
          39 callgsubr
          55 hhcurveto
          -138 -353 111 callsubr
        </CharString>
        <CharString name="acaron">
          1272 835 124 callsubr
          -588 -1588 -97 callsubr
          -95 callsubr
        </CharString>
        <CharString name="acircumflex">
          1272 340 -27 callsubr
          -96 callgsubr
          157 -1176 -97 callsubr
          -95 callsubr
        </CharString>
        <CharString name="acircumflexacute">
          1272 929 -35 callsubr
          -23 callsubr
          1 -323 -57 callsubr
          125 -1244 -97 callsubr
          -95 callsubr
        </CharString>
        <CharString name="acircumflexdotbelow">
          1272 340 -27 callsubr
          -96 callgsubr
          157 -1176 -97 callsubr
          54 callsubr
          201 -744 -84 callsubr
        </CharString>
        <CharString name="acircumflexgrave">
          1272 246 139 callsubr
          1 -627 -57 callsubr
          125 -1244 -97 callsubr
          -95 callsubr
        </CharString>
        <CharString name="acircumflexhookabove">
          1272 849 1734 rmoveto
          -90 -82 -37 -51 -49 hvcurveto
          -72 vlineto
          16 31 55 15 -41 callgsubr
          86 -57 rlineto
          153 30 84 57 99 vvcurveto
          98 -50 callgsubr
          125 -1244 -97 callsubr
          -95 callsubr
        </CharString>
        <CharString name="acircumflextilde">
          1272 725 1472 rmoveto
          127 -28 callgsubr
          39 callgsubr
          55 hhcurveto
          -478 -349 -57 callsubr
          125 -1244 -97 callsubr
          -95 callsubr
        </CharString>
        <CharString name="acute">
          1024 461 -94 callsubr
          -67 callsubr
          endchar
        </CharString>
        <CharString name="acutecmb">
          0 -51 -94 callsubr
          -67 callsubr
          endchar
        </CharString>
        <CharString name="acutecmb.short">
          0 -35 1126 rmoveto
          398 303 rlineto
          9 -400 vlineto
          -122 -312 rlineto
          endchar
        </CharString>
        <CharString name="acutedotaccentcmb">
          20 callgsubr
          -195 rmoveto
          203 vlineto
          -682 -211 rlineto
          -94 vlineto
          endchar
        </CharString>
        <CharString name="acutedotaccentcmb.short">
          0 1778 vmoveto
          -75 callgsubr
          -82 callgsubr
          350 -158 33 callsubr
          endchar
        </CharString>
        <CharString name="acyrillic">
          1272 100 callsubr
          -95 callsubr
        </CharString>
        <CharString name="adblgrave">
          1272 374 10 callgsubr
          -479 -1176 -97 callsubr
          -95 callsubr
        </CharString>
        <CharString name="adieresis">
          1272 333 143 callsubr
          -71 callgsubr
          509 hmoveto
          100 144 callsubr
          -470 -1206 -97 callsubr
          -95 callsubr
        </CharString>
        <CharString name="adieresismacron">
          1272 246 1504 rmoveto
          683 163 -683 hlineto
          156 -527 -39 callsubr
          -9 callsubr
          -401 -1163 -97 callsubr
          -95 callsubr
        </CharString>
        <CharString name="adotaccent">
          1272 587 -74 callsubr
          -106 -87 -75 -106 -106 87 -76 106 hvcurveto
          -215 -1195 -97 callsubr
          -95 callsubr
        </CharString>
        <CharString name="adotbelow">
          1272 100 callsubr
          54 callsubr
          201 -744 -84 callsubr
        </CharString>
        <CharString name="adotmacron">
          1272 246 1490 rmoveto
          683 165 -683 hlineto
          341 -523 -93 callgsubr
          -72 callgsubr
          -215 -1155 -97 callsubr
          -95 callsubr
        </CharString>
        <CharString name="ae">
          1758 383 -23 157 callsubr
        </CharString>
        <CharString name="aeacute">
          1758 860 -94 callsubr
          -67 callsubr
          -352 -1176 157 callsubr
        </CharString>
        <CharString name="aemacron">
          1758 551 -26 callsubr
          -168 -1460 157 callsubr
        </CharString>
        <CharString name="agrave">
          1272 641 -65 callgsubr
          154 -1566 -97 callsubr
          -95 callsubr
        </CharString>
        <CharString name="ahookabove">
          1272 642 -37 callgsubr
          78 callgsubr
          -108 -65 hvcurveto
          120 hlineto
          208 -27 callgsubr
          -270 -1590 -97 callsubr
          -95 callsubr
        </CharString>
        <CharString name="ainvertedbreve">
          1272 587 123 callsubr
          100 69 144 144 101 -70 -97 vhcurveto
          -3 114 vlineto
          3 112 callgsubr
          -215 -1576 -97 callsubr
          -95 callsubr
        </CharString>
        <CharString name="alphagreek">
          1408 482 -22 191 callsubr
        </CharString>
        <CharString name="alphatonosgreek">
          1408 719 25 callsubr
          -103 -1175 191 callsubr
        </CharString>
        <CharString name="amacron">
          1272 228 -34 callgsubr
          144 -1460 -97 callsubr
          -95 callsubr
        </CharString>
        <CharString name="ampersand">
          1728 542 -26 rmoveto
          188 133 74 136 141 hvcurveto
          180 -184 rlineto
          517 94 hlineto
          -72 24 -66 46 -191 192 rrcurveto
          -112 113 123 145 144 167 49 32 103 15 rlinecurve
          99 vlineto
          -457 -2 rlineto
          -98 vlineto
          117 -18 20 -35 -88 -127 rrcurveto
          -76 -111 -306 312 -6 6 rlineto
          210 66 125 107 142 vvcurveto
          174 -156 130 -276 -309 -187 -166 -206 -110 46 -94 104 -124 vhcurveto
          -242 -70 -129 -143 -1 -190 rrcurveto
          -234 195 -162 279 vhcurveto
          109 1230 rmoveto
          88 58 48 77 87 53 -77 -109 -2 vhcurveto
          -2 -90 -34 -81 -76 -56 rrcurveto
          -120 128 -41 69 80 vvcurveto
          -227 -685 rmoveto
          75 25 59 57 44 vhcurveto
          35 -38 40 -41 45 -46 317 -324 rcurveline
          -39 -60 -59 -16 -65 hhcurveto
          -187 -148 136 190 hvcurveto
          endchar
        </CharString>
        <CharString name="anoteleiagreek">
          598 299 635 -16 callgsubr
          65 callgsubr
        </CharString>
        <CharString name="aogonek">
          1271 100 callsubr
          -102 28 123 -62 130 5 4 0 5 hhcurveto
          -199 -100 -68 -94 -100 vvcurveto
          -113 100 -69 132 105 103 44 72 47 vhcurveto
          96 vlineto
          -14 -15 -29 -9 -32 hhcurveto
          -51 -42 30 63 83 58 76 108 89 hvcurveto
          94 vlineto
          -4 -11 -15 -1 -16 hhcurveto
          -52 -42 33 80 hvcurveto
          427 vlineto
          263 -185 114 -315 -309 -189 -123 -150 -91 73 -62 99 101 74 71 91 49 -22 43 -34 28 vhcurveto
          7 28 31 3 32 hhcurveto
          146 82 -66 -168 hvcurveto
          -73 vlineto
          -209 -43 rlineto
          -329 -67 -113 -114 -154 vvcurveto
          -147 118 -106 187 vhcurveto
          79 315 rmoveto
          97 56 62 150 34 vhcurveto
          61 14 rlineto
          -274 vlineto
          -43 -24 -50 -29 -63 hhcurveto
          -73 -57 49 90 hvcurveto
          endchar
        </CharString>
        <CharString name="approxequal">
          1304 915 841 rmoveto
          -56 callgsubr
          -295 233 callsubr
          -232 32 callgsubr
          -524 vmoveto
          -56 callgsubr
          85 callgsubr
        </CharString>
        <CharString name="aring">
          1272 257 1359 rmoveto
          -133 138 -88 192 192 139 225 callsubr
          -120 -1382 -97 callsubr
          -95 callsubr
        </CharString>
        <CharString name="aringacute">
          1272 929 1550 rmoveto
          204 vlineto
          -683 -13 callgsubr
          60 90 rmoveto
          -37 hlineto
          -47 -27 27 41 41 27 28 47 hvcurveto
          37 hlineto
          46 27 -28 -41 -41 -27 -27 -46 hvcurveto
          -234 -1228 -97 callsubr
          -95 callsubr
        </CharString>
        <CharString name="aringbelow">
          1272 100 callsubr
          54 callsubr
          -130 -580 rmoveto
          -121 139 -78 192 191 139 78 121 120 -138 79 -192 -193 -138 16 callgsubr
        </CharString>
        <CharString name="asciicircum">
          1304 597 1444 rmoveto
          -482 -600 139 -130 395 490 396 -491 145 130 -481 601 rlineto
          endchar
        </CharString>
        <CharString name="asciitilde">
          1304 915 568 rmoveto
          -56 callgsubr
          85 callgsubr
        </CharString>
        <CharString name="asterisk">
          891 427 1096 rmoveto
          37 hlineto
          70 193 rlineto
          113 46 -68 72 -66 hhcurveto
          -69 -67 -71 -114 47 hvcurveto
          110 -195 rmoveto
          19 -34 202 37 rlineto
          121 17 27 95 -33 57 -34 60 -95 23 -75 -98 rrcurveto
          -194 -191 rmoveto
          18 34 -131 157 rlineto
          -75 97 -96 -24 -33 -58 -34 -60 27 -91 123 -18 rrcurveto
          219 -74 rmoveto
          -18 34 -201 -37 rlineto
          -121 -17 -28 -94 33 -58 35 -60 94 -23 75 98 rrcurveto
          194 191 rmoveto
          -18 -33 131 -158 rlineto
          74 -97 97 24 33 58 35 60 -28 91 -122 18 rrcurveto
          -224 1 rmoveto
          -37 hlineto
          -70 -193 rlineto
          -114 -46 68 -71 67 hhcurveto
          68 67 70 115 -46 hvcurveto
          endchar
        </CharString>
        <CharString name="at">
          2107 557 394 rmoveto
          -221 93 -121 150 132 116 81 153 68 vhcurveto
          -1 -5 -2 -13 -4 vvcurveto
          -143 2 84 -101 205 hhcurveto
          375 252 301 387 451 -369 312 -541 -617 -427 -472 -561 -537 388 -326 470 181 184 49 77 94 hvcurveto
          -1 99 rlineto
          -75 -131 -141 -21 -162 hhcurveto
          -416 -319 277 460 494 376 408 522 473 289 -266 -389 -311 -184 -193 -174 -85 -21 44 104 22 hvcurveto
          141 659 -209 0 -128 -117 rlineto
          87 -35 -78 54 -116 hhcurveto
          -275 -185 -301 -320 hvcurveto
          343 6 rmoveto
          189 90 300 134 55 35 -44 -84 -9 vhcurveto
          -69 -324 rlineto
          -111 -24 -64 -80 -68 hhcurveto
          -54 -26 54 100 hvcurveto
          endchar
        </CharString>
        <CharString name="atilde">
          1272 731 148 callsubr
          -24 -38 -48 8 callgsubr
          1 24 38 66 callgsubr
          -359 -1205 -97 callsubr
          -95 callsubr
        </CharString>
        <CharString name="austral">
          1525 204 316 rmoveto
          -61 -171 -28 -28 -114 -18 rrcurveto
          -99 468 99 vlineto
          -144 22 -23 33 54 161 rrcurveto
          21 65 509 0 23 -68 53 -158 -23 -34 -144 -21 rlinecurve
          -99 732 99 vlineto
          -113 17 -30 30 -59 163 -26 71 rcurveline
          228 79 -256 hlineto
          -70 196 rlineto
          326 79 -355 hlineto
          -255 711 -307 0 -255 -711 rlineto
          -354 -79 325 hlineto
          -70 -196 rlineto
          -255 -79 226 hlineto
          269 354 rmoveto
          135 402 135 -402 rlineto
          -362 -275 rmoveto
          66 196 323 0 66 -196 rlineto
          endchar
        </CharString>
        <CharString name="austral.tnum">
          1311 -2 453 rmoveto
          -79 179 vlineto
          -18 -60 -50 -171 -20 -31 -90 -13 rlinecurve
          -99 391 99 vlineto
          -117 15 -16 30 46 167 rrcurveto
          17 63 396 0 17 -64 45 -166 -16 -28 -122 -17 rlinecurve
          -99 672 99 vlineto
          -91 13 -19 33 -50 165 -19 64 rcurveline
          180 79 -203 hlineto
          -58 196 rlineto
          261 79 -284 hlineto
          -213 716 -321 0 -213 -716 rlineto
          -284 -79 261 hlineto
          -59 -196 rlineto
          217 275 rmoveto
          102 371 101 -371 rlineto
          -278 -275 rmoveto
          53 196 246 0 53 -196 rlineto
          endchar
        </CharString>
        <CharString name="b">
          -91 callgsubr
          108 callsubr
          endchar
        </CharString>
        <CharString name="backslash">
          796 530 -280 rmoveto
          234 hlineto
          -498 1860 rlineto
          -234 hlineto
          endchar
        </CharString>
        <CharString name="baht">
          1516 52 30 rmoveto
          691 -220 79 220 hlineto
          341 8 280 140 261 vvcurveto
          213 -176 125 -267 14 vhcurveto
          207 16 183 95 193 vvcurveto
          201 -203 112 -365 6 vhcurveto
          218 -79 -218 -691 -99 vlineto
          88 callgsubr
          545 1172 rmoveto
          101 -3 rlineto
          16 15 -1 -2 14 hvcurveto
          -484 vlineto
          -5 -6 0 -5 hhcurveto
          -130 -1 rlineto
          386 245 rmoveto
          -131 -57 -75 -104 -27 vhcurveto
          457 vlineto
          108 -35 53 -79 -110 vvcurveto
          -386 -358 rmoveto
          130 -1 rlineto
          5 5 0 -1 6 hvcurveto
          -546 vlineto
          -2 -15 -14 -1 -16 hhcurveto
          -101 -3 rlineto
          429 285 rmoveto
          -139 -73 -90 -131 -36 vhcurveto
          522 vlineto
          132 -30 72 -95 -132 vvcurveto
          endchar
        </CharString>
        <CharString name="baht.tnum">
          1311 28 41 rmoveto
          620 -230 79 230 hlineto
          306 9 252 138 247 50 callgsubr
          190 -179 109 -329 7 vhcurveto
          230 -79 -230 -620 -99 vlineto
          62 callgsubr
          504 1150 rmoveto
          80 -1 13 -1 11 -1 12 -1 rlinecurve
          -475 vlineto
          -1 -6 -5 0 -6 hhcurveto
          -99 hlineto
          330 246 rmoveto
          -123 -48 -77 -87 -31 vhcurveto
          443 vlineto
          87 -35 48 -74 -103 vvcurveto
          -330 -359 rmoveto
          99 -1 rlineto
          6 5 0 6 hhcurveto
          -538 vlineto
          -12 -1 -12 -1 -12 -1 -80 -1 rcurveline
          371 274 rmoveto
          -132 -66 -86 -110 -36 vhcurveto
          510 vlineto
          113 -33 63 -90 -133 vvcurveto
          endchar
        </CharString>
        <CharString name="bar">
          796 281 -280 rmoveto
          234 1860 -234 hlineto
          endchar
        </CharString>
        <CharString name="bdotaccent">
          1348 341 1589 236 callsubr
          86 -76 107 hvcurveto
          936 -1063 rmoveto
          108 callsubr
          endchar
        </CharString>
        <CharString name="bdotbelow">
          -91 callgsubr
          108 callsubr
          -202 -948 -84 callsubr
        </CharString>
        <CharString name="becyrillic">
          1351 1280 505 rmoveto
          300 -214 197 -349 -232 -177 -110 -166 -82 vhcurveto
          -3 26 -2 28 29 vvcurveto
          179 83 141 345 26 vhcurveto
          127 11 340 27 92 101 15 250 rlinecurve
          -100 hlineto
          -19 -49 -55 -11 -235 -25 -248 -26 -155 -66 -114 -103 rrcurveto
          -142 -129 -80 -205 -319 vvcurveto
          -379 201 -255 394 331 279 202 326 vhcurveto
          -412 -14 rmoveto
          -272 -72 -114 -115 -122 -68 152 239 245 66 137 129 114 68 -142 -245 vhcurveto
          endchar
        </CharString>
        <CharString name="betagreek">
          1325 120 -460 rmoveto
          405 hlineto
          -5 210 -5 183 -3 160 rrcurveto
          -66 54 101 -50 129 hhcurveto
          235 218 156 286 273 -167 177 -229 30 hvcurveto
          171 15 153 103 175 vvcurveto
          196 -167 146 -331 -331 -226 -169 -410 -1 vhcurveto
          377 135 rmoveto
          202 46 107 124 106 53 -90 -148 -153 -77 -83 -143 -7 vhcurveto
          -261 vlineto
          173 -7 103 -101 -179 vvcurveto
          -165 -94 -73 -109 -71 -67 30 47 -33 vhcurveto
          -9 481 -2 249 151 vvcurveto
          endchar
        </CharString>
        <CharString name="bitcoin">
          1497 52 30 rmoveto
          527 -219 79 219 118 hlineto
          28 27 1 2 27 hvcurveto
          -222 80 229 vlineto
          277 38 210 135 226 vvcurveto
          213 -176 125 -268 14 vhcurveto
          209 16 182 95 193 vvcurveto
          175 -154 108 -280 28 vhcurveto
          226 -80 -220 vlineto
          1 -26 -28 1 -28 hhcurveto
          -118 218 -79 -218 -527 -99 hlineto
          88 callgsubr
          914 926 rmoveto
          -166 -94 -77 -163 -1 vhcurveto
          -112 -1 0 491 84 -3 rlineto
          191 -6 94 -91 -146 vvcurveto
          42 -627 rmoveto
          -178 -120 -98 -207 -6 vhcurveto
          -84 -3 0 554 112 -1 rlineto
          193 -2 106 -106 -160 vvcurveto
          endchar
        </CharString>
        <CharString name="bitcoin.tnum">
          1311 28 41 rmoveto
          461 -230 79 230 127 hlineto
          23 23 1 1 22 hvcurveto
          -232 79 240 vlineto
          252 37 191 132 215 50 callgsubr
          167 -138 104 -255 28 vhcurveto
          236 -79 -230 vlineto
          1 -22 -23 0 -23 hhcurveto
          -127 229 -79 -229 -461 -99 hlineto
          62 callgsubr
          828 916 rmoveto
          -162 -83 -83 -147 -1 vhcurveto
          -88 480 hlineto
          69 -1 rlineto
          160 -5 89 -86 -142 vvcurveto
          41 -631 rmoveto
          -170 -113 -94 -177 -6 vhcurveto
          -69 -1 0 543 88 -1 rlineto
          174 -2 97 -107 -162 vvcurveto
          endchar
        </CharString>
        <CharString name="blinebelow">
          -91 callgsubr
          108 callsubr
          -537 -874 -80 callsubr
        </CharString>
        <CharString name="braceleft">
          796 567 1032 rmoveto
          183 vlineto
          147 11 119 170 vhcurveto
          99 -45 vlineto
          -334 -151 -131 -250 hvcurveto
          -299 vlineto
          -154 -68 -48 -121 vhcurveto
          -96 vlineto
          121 68 -48 -156 hvcurveto
          -296 vlineto
          -251 151 -131 334 vhcurveto
          45 99 hlineto
          -170 -11 119 147 hvcurveto
          183 vlineto
          236 -128 113 -239 33 vhcurveto
          239 33 128 113 236 vvcurveto
          endchar
        </CharString>
        <CharString name="braceright">
          796 228 1032 rmoveto
          -236 128 -113 239 -33 vhcurveto
          -238 -33 -129 -113 -236 vvcurveto
          -183 vlineto
          -147 -11 -119 -170 vhcurveto
          -99 45 vlineto
          335 151 131 251 hvcurveto
          296 vlineto
          156 67 48 121 vhcurveto
          96 vlineto
          -121 -67 48 154 hvcurveto
          299 vlineto
          250 -151 131 -335 vhcurveto
          -45 -99 hlineto
          170 11 -119 -147 hvcurveto
          endchar
        </CharString>
        <CharString name="bracketleft">
          796 179 -283 rmoveto
          570 3 0 99 -232 5 0 1652 232 5 0 99 -570 3 rlineto
          endchar
        </CharString>
        <CharString name="bracketright">
          796 616 1583 rmoveto
          -570 -3 0 -99 232 -5 0 -1652 -232 -5 0 -99 570 -3 rlineto
          endchar
        </CharString>
        <CharString name="breve">
          1024 512 1166 rmoveto
          238 126 155 173 25 -2 25 -51 callgsubr
          -18 callgsubr
          231 callsubr
        </CharString>
        <CharString name="breveacutecmb">
          137 callsubr
          341 -327 117 callsubr
        </CharString>
        <CharString name="breveacutecmb.short">
          0 350 147 callsubr
          -79 vlineto
          350 -268 -32 callsubr
          endchar
        </CharString>
        <CharString name="brevebelowcmb">
          0 -467 vmoveto
          222 116 140 156 23 -1 21 -4 18 hvcurveto
          -106 -3 hlineto
          -89 -92 -62 -135 -133 -94 63 88 vhcurveto
          3 -106 vlineto
          -4 -18 -1 -21 -23 vvcurveto
          -156 116 -140 222 vhcurveto
          endchar
        </CharString>
        <CharString name="brevecmb">
          0 1166 vmoveto
          238 126 155 173 25 -2 25 -51 callgsubr
          -18 callgsubr
          231 callsubr
        </CharString>
        <CharString name="brevecmb.short">
          0 1148 vmoveto
          219 117 134 150 21 -2 21 -3 16 hvcurveto
          -111 -2 hlineto
          -87 -90 -59 -130 -128 -93 60 86 vhcurveto
          2 -110 vlineto
          -3 -16 -2 -21 -21 vvcurveto
          -150 117 -134 219 vhcurveto
          endchar
        </CharString>
        <CharString name="brevecyrilliccmb">
          0 1158 vmoveto
          219 158 119 161 96 -60 -2 callgsubr
          219 vhcurveto
          endchar
        </CharString>
        <CharString name="brevecyrilliccmb.short">
          0 1556 vmoveto
          216 150 100 145 84 -56 59 -83 -81 183 callsubr
          53 callgsubr
          endchar
        </CharString>
        <CharString name="brevegravecmb">
          -66 callgsubr
          341 -631 117 callsubr
        </CharString>
        <CharString name="brevegravecmb.short">
          0 -350 75 callsubr
          350 -527 -32 callsubr
          endchar
        </CharString>
        <CharString name="brevehookabovecmb">
          0 -10 1734 rmoveto
          -91 -82 -37 -51 -48 hvcurveto
          -72 vlineto
          16 30 55 15 -41 callgsubr
          86 -57 rlineto
          154 30 83 57 99 vvcurveto
          98 -96 63 -131 vhcurveto
          10 -615 117 callsubr
        </CharString>
        <CharString name="brevehookabovecmb.short">
          0 -10 2047 rmoveto
          -93 30 callgsubr
          88 -49 rlineto
          157 26 86 49 84 vvcurveto
          83 -97 53 -135 vhcurveto
          10 -517 -32 callsubr
          endchar
        </CharString>
        <CharString name="brevetildecmb">
          0 137 1472 9 callsubr
          82 callsubr
          14 -38 vhcurveto
          -40 14 rlineto
          17 -50 -51 14 -54 -39 callgsubr
          54 26 23 -46 callgsubr
          -137 -353 117 callsubr
        </CharString>
        <CharString name="brevetildecmb.short">
          0 141 1826 rmoveto
          131 79 76 134 -1 hvcurveto
          -115 hlineto
          -45 -1 -26 -21 -49 hhcurveto
          -29 -31 7 12 -39 hvcurveto
          7 callgsubr
          52 -13 56 hhcurveto
          -141 -296 -32 callsubr
          endchar
        </CharString>
        <CharString name="brokenbar">
          796 281 789 rmoveto
          234 791 -234 hlineto
          -1860 vmoveto
          234 791 -234 hlineto
          endchar
        </CharString>
        <CharString name="bullet">
          833 416 227 callsubr
        </CharString>
        <CharString name="c">
          1137 639 -23 16 callsubr
        </CharString>
        <CharString name="cacute">
          1137 597 -94 callsubr
          -51 callsubr
          167 -1176 16 callsubr
        </CharString>
        <CharString name="caret">
          598 253 hmoveto
          -310 -368 112 -109 241 286 244 -287 116 110 -309 368 rlineto
          endchar
        </CharString>
        <CharString name="caron">
          1024 759 55 callgsubr
        </CharString>
        <CharString name="caroncmb">
          0 247 55 callgsubr
        </CharString>
        <CharString name="caroncmb.short">
          0 247 1446 21 callgsubr
          endchar
        </CharString>
        <CharString name="carondotaccentcmb">
          20 callgsubr
          -3 51 callgsubr
          endchar
        </CharString>
        <CharString name="carondotaccentcmb.short">
          0 1800 vmoveto
          75 59 49 67 68 -59 48 -75 -74 -60 27 callgsubr
          68 0 324 168 rlineto
          endchar
        </CharString>
        <CharString name="caronslovak">
          1024 452 1136 154 callsubr
          endchar
        </CharString>
        <CharString name="caronslovakcmb">
          0 119 1136 154 callsubr
          endchar
        </CharString>
        <CharString name="ccaron">
          1137 896 124 callsubr
          -382 -1588 16 callsubr
        </CharString>
        <CharString name="ccedilla">
          1137 594 -481 -80 callgsubr
          62 66 173 8 146 63 78 95 rlinecurve
          164 callsubr
          -302 213 -191 275 -31 vhcurveto
          -111 -126 10 callsubr
          16 hhcurveto
          63 42 -23 -45 -44 -43 -24 -61 -51 -45 callgsubr
          endchar
        </CharString>
        <CharString name="ccedillaacute">
          1137 597 -94 callsubr
          -51 callsubr
          122 -1634 -80 callgsubr
          62 66 173 8 146 63 78 95 rlinecurve
          164 callsubr
          -302 213 -191 275 -31 vhcurveto
          -111 -126 10 callsubr
          16 hhcurveto
          63 42 -23 -45 -44 -43 -24 -61 -51 -45 callgsubr
          endchar
        </CharString>
        <CharString name="ccircumflex">
          1137 401 -27 callsubr
          -96 callgsubr
          363 -1176 16 callsubr
        </CharString>
        <CharString name="cdotaccent">
          1137 648 -74 callsubr
          -106 -87 -75 -106 -106 87 -76 106 hvcurveto
          -9 -1195 16 callsubr
        </CharString>
        <CharString name="cedi">
          1367 805 -188 rmoveto
          79 201 hlineto
          163 6 159 41 81 54 10 359 rcurveline
          -94 hlineto
          -55 -238 -110 -88 -154 -2 rrcurveto
          1155 vlineto
          158 -3 106 -98 52 -225 rrcurveto
          94 hlineto
          -10 359 -90 52 -136 40 -174 7 rlinecurve
          200 -79 -200 vlineto
          -426 -12 -290 -273 -428 vvcurveto
          -423 297 -271 419 -13 vhcurveto
          -304 728 rmoveto
          315 111 199 193 39 vhcurveto
          -1140 vlineto
          -193 45 -111 228 314 vvcurveto
          endchar
        </CharString>
        <CharString name="cedi.tnum">
          1311 772 -188 rmoveto
          79 201 hlineto
          152 7 146 37 80 50 10 360 rcurveline
          -94 hlineto
          -53 -232 -102 -87 -139 -4 rrcurveto
          1155 vlineto
          138 -3 99 -98 49 -218 rrcurveto
          94 hlineto
          -9 359 -86 49 -126 37 -159 6 rlinecurve
          201 -79 -200 vlineto
          -408 -11 -279 -276 -427 vvcurveto
          -432 287 -263 400 -11 vhcurveto
          -276 728 rmoveto
          315 100 196 176 41 vhcurveto
          -1139 vlineto
          -178 45 -98 220 322 vvcurveto
          endchar
        </CharString>
        <CharString name="cedilla">
          1024 477 -481 rmoveto
          156 135 -104 callgsubr
          -4 -4 0 -3 hhcurveto
          82 88 rlineto
          52 -77 vlineto
          -171 -197 155 callsubr
          -52 -49 228 callsubr
        </CharString>
        <CharString name="cedillacmb">
          0 -35 -481 rmoveto
          140 callsubr
          81 85 rlineto
          52 -77 vlineto
          -171 -194 155 callsubr
          138 callsubr
          endchar
        </CharString>
        <CharString name="cent">
          1171 700 hmoveto
          188 vlineto
          177 229 callsubr
          -100 hhcurveto
          -48 -46 8 15 -42 hvcurveto
          715 vlineto
          4 19 21 2 22 hhcurveto
          26 26 -3 -5 23 hvcurveto
          -36 -28 -24 -44 -51 vvcurveto
          -93 70 -74 96 92 76 68 98 157 -150 101 -261 8 vhcurveto
          186 -79 -186 vlineto
          -310 -18 -240 -205 -322 vvcurveto
          -327 246 -195 304 -5 vhcurveto
          -186 vlineto
          -156 783 rmoveto
          148 59 108 97 52 vhcurveto
          -648 vlineto
          -95 66 -61 115 159 vvcurveto
          endchar
        </CharString>
        <CharString name="cent.1">
          1127 687 hmoveto
          188 vlineto
          164 11 138 62 76 46 callgsubr
          106 129 154 69 callgsubr
          78 71 105 157 -137 101 -240 9 vhcurveto
          186 -79 -186 vlineto
          -302 -18 -235 -205 -321 vvcurveto
          -322 239 -196 298 -10 vhcurveto
          -186 vlineto
          endchar
        </CharString>
        <CharString name="cent.1.tnum">
          1311 764 hmoveto
          188 vlineto
          165 11 138 62 75 46 callgsubr
          107 129 153 69 callgsubr
          79 71 105 157 -138 101 -240 9 vhcurveto
          186 -79 -186 vlineto
          -301 -18 -236 -205 -321 vvcurveto
          -322 239 -195 298 -11 vhcurveto
          -186 vlineto
          endchar
        </CharString>
</ttFont>
